<?xml version="1.0" encoding="UTF-8"?><svg id="a" xmlns="http://www.w3.org/2000/svg" viewBox="0 0 34.65 32.05"><defs><style>.c{fill:#b4a091;}</style></defs><g id="b"><g><path class="c" d="M4.17,13.34c.58,.43,1.26,.73,1.95,.85,.77,.12,1.37,.11,2.13-.14-1.39-1.46-2.85-2.9-4.28-4.35,1.57,1.27,3.2,2.65,4.71,3.79,.11-.41,.04-1.25-.4-2.34-.35-.82-.84-1.54-1.46-2.07-1.04-.88-3.04-1.57-3.97-.33-1.08,1.42,.08,3.64,1.32,4.59"/><path class="c" d="M9.73,20.96c.88-.27,2.43-1.31,2.56-2.2-1.63,.09-3.25,.44-4.37,1.16,1.06-1.12,2.7-1.53,4.4-1.65-.86-.59-2-.87-3.18-.56-1.16,.29-2.62,1.4-2.28,2.53,.29,.99,1.89,1.02,2.88,.71"/><path class="c" d="M7.56,21.67c.5,1.47,.99,2.43,1.74,3.31-.95-.71-1.55-1.75-2.03-3.1-.22,.77-.13,1.73,.29,2.57,.44,.86,1.48,1.83,2.19,1.33,.6-.44,.31-1.74-.11-2.47-.38-.7-1.41-1.72-2.08-1.64"/><path class="c" d="M15.65,22.14c-1.6-.29-2.93-.26-4.07-.02,1.23-.55,2.31-.7,4.04-.44-.56-.68-1.53-1.12-2.52-1.17-1.07-.03-2.57,.55-2.53,1.62,.04,.92,1.43,1.38,2.34,1.36,.94-.02,2.4-.54,2.73-1.36"/><path class="c" d="M4.75,17.04c.59-.73,.82-1.25,.84-1.58-1.67,.31-3.32,1.07-4.42,1.91,1.11-1.36,2.63-2.13,4.38-2.38-.51-.3-1.1-.5-1.71-.54-.54-.04-1.12,.07-1.64,.3-1.18,.47-2.56,1.88-2.09,3.12,.4,1.06,2.08,.91,3.06,.45,.6-.29,1.14-.73,1.59-1.27"/><path class="c" d="M20.61,13.97c.25-1.4-.1-3.66-1.54-4-1.66-.39-2.94,1.74-3.15,3.38-.18,1.48,.26,3.1,1.16,4.15,.43-2.19,1.19-4.26,1.72-5.99-.3,1.79-.57,4.19-1.12,6.21,1.43-.27,2.65-2.24,2.92-3.74"/><path class="c" d="M24.6,17.22c.67,.63,1.65,1.02,2.71,.9,1.04-.11,2.44-.89,2.27-1.93-.16-.88-1.55-1.13-2.44-.98-.74,.12-2.05,.62-2.58,1.6,1.59,0,2.99,.03,4.05-.45-1.12,.69-2.49,.92-4.01,.86"/><path class="c" d="M30.58,16.64c1.28-.78,2.26-1.49,3.03-2.42-.62,1.14-1.52,2.02-2.78,2.73,.78,.18,1.71-.06,2.46-.64,.81-.62,1.62-1.96,1.04-2.7-.49-.66-1.74-.16-2.4,.4-.64,.55-1.5,1.86-1.34,2.62"/><path class="c" d="M34.31,19.55c-.66-1.07-1.89-1.67-2.95-1.66-.39,0-.76,.12-.99,.39,1.47,.31,2.7,1.08,3.62,2.36-1.23-1.18-2.62-1.73-3.83-1.97,.21,1.02,.81,1.99,1.66,2.58,.88,.58,2.37,.78,2.76-.29,.17-.46,.02-.96-.27-1.4"/><path class="c" d="M27.31,8.81c.55-1.49,.96-3.16,.84-4.47,.41,1.35,.13,3.04-.49,4.68,.82-.55,1.48-1.49,1.72-2.69,.22-1.18-.05-2.95-1.06-3.1-1.03-.14-1.71,1.72-1.74,2.9,0,.96,.2,2.29,.73,2.68"/><path class="c" d="M25.69,4.49c.09-1.03-.18-2.3-.64-3.08,.63,.81,.99,1.9,.96,3.09,.24-.33,.41-.71,.51-1.11,.09-.37,.08-.76,.02-1.14-.16-.81-.87-1.84-1.67-1.59-.68,.22-.78,1.36-.61,2.04,.16,.63,.81,1.72,1.44,1.8"/><path class="c" d="M7.91,8.65c-.21-1.57-.53-2.9-1.09-3.85,.88,.98,1.35,2.31,1.43,3.82,.58-.79,.84-1.82,.58-2.85-.26-1.02-1.26-2.25-2.31-1.9-.91,.31-.97,1.74-.69,2.6,.25,.82,1.21,2.12,2.09,2.19"/><path class="c" d="M9.19,4.66c.3-1.16,.43-2.22,.26-3.12,.33,.76,.42,2.07,.03,3.08,.58-.32,1-.98,1.11-1.72,.11-.79-.24-2.01-1.07-2.12-.73-.09-1.18,.87-1.24,1.57-.06,.74,.27,1.93,.91,2.3"/><path class="c" d="M24.02,21.38c-.82-.66-1.89-.87-2.88-.73-.55,.08-1.11,.28-1.52,.71,1.63-.06,3.21,.42,4.53,1.54-1.42-.82-3.25-1.13-4.53-.99,.28,.98,1.25,1.82,2.29,2.16,.52,.18,1.18,.23,1.75,.09,1.45-.36,1.53-1.84,.37-2.78"/><path class="c" d="M18.7,5.93c-1.03-.43-2.39,.48-2.89,1.29-.23,.38-.36,.79-.38,1.18-.01,.44,.11,.87,.33,1.26,.51-1.24,1.26-2.48,2.41-3-.91,.73-1.48,1.8-1.96,3.07,.9,.04,2.18-.95,2.62-1.57,.49-.67,.75-1.87-.14-2.23"/><path class="c" d="M27.75,19.45l-.12-.02,.17,.18c.64,.69,1.31,1.4,1.61,2.32,.15,.46,.22,.95,.21,1.44-.01,.4-.03,.81-.13,1.2-.09-1.07-.51-2.3-.86-3.05-.62-1.33-1.84-2.38-3.54-3.05-.74-.29-1.61-.45-2.39-.45-.53,0-1.02,.07-1.44,.22,.52-.33,1.03-.7,1.53-1.05,.31-.22,.63-.45,.94-.66,3.08-2.11,6.27-4.29,8.3-7.79-.49,1.53-1.74,3.44-3.15,4.77l-.09,.08h.11c2.06-.09,4.31-1.67,4.41-4.4-.02-2.12-1.98-2.54-3.31-1.34-1.33,1.21-1.47,3.28-2.52,4.7-.58,.79-1.44,1.2-2.18,1.76,.18-.13,.32-.8,.4-1.02,1.45-3.99-.58-9.92-3.82-12.26C21.07,.42,20.07,.01,19.09,.01h-.04c-.77,0-1.37,.27-1.72,.79-.89,1.3,.14,3.03,.99,3.81,.76,.69,1.8,1.05,3.03,1.05,.55,0,1.14-.07,1.75-.22h.06l-.03-.07c-1.07-1.79-2.54-2.79-4.22-3.75,2.28,.93,3.91,2.22,4.97,3.94,.96,1.59,1.81,4.19,1.21,6.51,.14-1.78-.07-3.05-.66-3.87-.43-.61-1.01-.97-1.54-.97s-.99,.37-1.28,1.04c-1.13,2.76,.8,5.11,1.42,5.76l.03,.03,.03-.03c.93-.99,.75-3.17,.1-4.89,.62,1.06,.98,2.38,.93,3.49-.05,1.05-.39,2.04-1.03,2.83-.45,.55-.93,1.07-1.44,1.54-.51,.47-1.05,.91-1.62,1.3-.1,.07-1.35,.95-1.35,.95,.13,.23,.23,.42,.34,.66l.02,.04c1.01-.7,2.18-1.09,3.37-1.09,1.01,0,2.69,.17,3.34,1.14,.44,.65,.33,1.49,.41,2.25,.19,1.75,1.32,4.01,3.18,4.01,.79,0,1.48-.67,1.7-1.66,.32-1.43,.02-2.84-.8-3.76-.69-.78-1.56-1.28-2.46-1.42"/><path class="c" d="M24.1,31.47l-.56-.72h-.04c-2.21,.1-4.27-.96-5.3-2.63v-.02c.47-.95,.84-1.98,.95-3.05,.1-1.05-.02-2.12-.31-3.12-.16-.54-.35-1.1-.58-1.61-.82-1.77-2.11-3.08-3.7-4.01-.32-.19-.65-.35-.96-.56-.24-.15-.46-.34-.66-.54-.22-.22-.41-.47-.56-.75-.45-.87-.54-1.94-.44-2.9,.02-.24,.06-.49,.09-.73,.08-.51,.28-.98,.42-1.43-.41,2.4-.34,3.91,.52,5.16l.05,.08,.06-.07c1.82-2.03,2.09-4.02,1.65-5.4-.33-1.04-1.08-1.72-1.93-1.72-.25,0-.49,.06-.73,.17-1.37,.66-1.58,2.56-1.48,4.05-.47-2.71,.3-5.61,1.9-7.73,.46-.61,.98-1.22,1.54-1.73-.9,1.13-1.55,2.23-2.1,3.55l-.05,.13h.13c1.23-.1,2.56-.84,3.39-1.9,.61-.77,.89-1.64,.81-2.5-.06-.74-.43-1.24-1.01-1.4-.26-.09-.54-.11-.82-.04-1.9,.52-3.13,2.41-3.83,4.28-.67,1.77-1.07,3.75-1.02,5.67,.03,.91,.16,1.82,.45,2.7,.24,.79,.56,1.54,.97,2.22,.14,.28,.28,.53,.35,.53-1.7-.02-3.4,.59-4.84,1.57-2.03,1.38-4.3,3.7-4.31,6.53,0,1.32,.7,2.97,2.11,2.95h.05c.88-.02,1.65-.75,1.92-1.8,.39-1.49,.15-3.48-.59-4.72l-.05-.09-.07,.07c-.8,1.28-1.2,2.56-1.2,4.25-.19-.46-.28-.9-.27-1.36,.03-1.99,1.25-3.5,2.63-4.65,.37-.31,.76-.58,1.16-.83,.35-.22,.73-.41,1.11-.56,.63-.25,1.28-.36,1.94-.42,2.63-.22,5.08,1.41,6.41,3.82l.1,.18c-.56,.67-.97,1.6-1.17,2.47-.21,.94-.17,1.95,.05,2.88,.07,.29,.3,1,.41,1.35,.2-.32,.35-.67,.49-1.02-.14-.47-.22-.97-.27-1.45-.07-.64,.04-1.35,.23-1.96,.15-.48,.38-.95,.64-1.36,.62,1.6,.66,2.97,.37,4.23-.23,1.01-.66,1.95-1.26,2.75-.5,.66-1.13,1.23-1.82,1.63-.67,.38-1.41,.7-2.16,.81-.41,.06-.84,.07-1.25,.02h-.04l-.7,.78-.29,.35c.95,.26,2.06,.21,3.02-.03,.78-.19,1.53-.5,2.21-.97,.66-.46,1.25-1.05,1.75-1.71,.05,.08,.51,.6,.6,.71,1.51,1.66,3.65,2.35,5.74,2.07l.42-.07-.28-.4Z"/></g></g></svg>