<?xml version="1.0" encoding="UTF-8"?><svg id="a" xmlns="http://www.w3.org/2000/svg" viewBox="0 0 1000 900"><defs><style>.b{fill:#fff;}</style></defs><path class="b" d="M773.79,847.69h-.85v-.42h-.42v-.42h-.85c-2.28-1.07,.97-1.59,1.91-1.85,1.24-.35,2.44-.78,3.6-1.32,2.65-1.25,5.7-3.08,7.2-5.72v-.42h.42v-.42h.42c.23-1.51,1.21-2.99,1.69-4.45,.46-1.39,.42-2.85,.42-4.45,0-3.11,0-6.42-1.69-8.89v-.42h-.42v-.42c-2.51-4.56-7.57-6.28-12.28-8.05h-2.12v-.42h-2.54v-.42h-3.81v-.42h-49.97v61.83h11.43v-24.14h23.72v.42h3.39v.42h2.12c2.54,.95,5.17,1.58,7.62,2.75,2.86,1.36,5.17,3.48,7.41,5.72,1.29,1.29,2.32,2.45,3.39,3.81,.91,1.16,1.38,2.58,2.12,3.81,.73,1.21,1.47,2.29,1.91,3.6,.35,1.05,1.38,2.42,1.27,3.6h11.43c-1.87-4.1-3.84-8.03-6.14-11.86-2.47-4.12-5.94-8.5-10.38-11.43Zm-47.85-9.74v-19.48h34.3v.42h5.08v.42h2.54c4.51,1.69,8.05,3.87,8.05,8.89s-3.53,7.2-8.05,8.89h-2.12v.42h-3.39v.42h-36.42Z"/><path class="b" d="M198.26,844.3v-.42h-.42v-.42h-.42v-.85h-.42v-.42h-.42v-.42h-.42v-.42h-.42v-.42h-.42c-2.04-3.7-8.24-4.57-11.86-5.93h-2.12v-.42h-2.54v-.42h-2.96v-.42h-4.23v-.42h-6.35v-.42h-6.78v-.42h-4.66v-.42h-2.54c-3.3-1.24-8.47-2.35-8.47-6.56,0-4.53,4.04-5.62,7.62-7.41h2.12v-.42h2.54v-.42h13.13v.42h2.96v.42h2.54c4.81,1.8,11.24,2.52,15.25,5.93h1.27c1.25-2.28,3.8-3.62,5.08-5.93v-.42h.42v-.42h.42c.22-1.52-6.59-4.18-8.05-4.87-2.83-1.33-5.96-2.08-8.89-3.18h-2.12v-.42h-2.54v-.42h-2.96v-.42h-5.51v-.42h-6.78v.42h-5.51v.42h-2.54v.42h-2.12v.42h-1.69c-4.5,1.69-10.63,3.54-13.13,8.05v.42h-.42v.42h-.42c.02,.66-.33,1.18-.64,1.69-.39,.64-.4,1.2-.64,1.91-.36,1.08-.68,2.22-.85,3.39-.15,1.06-.14,2.54,0,3.6,.14,1.01,.91,2.32,.85,3.39v.42h.42v.85h.42v.85h.42v.85h.42c2,3.64,6.8,4.25,10.16,5.93h2.12v.42h2.12v.42h2.96v.42h3.81v.42h5.08v.42h6.78v.42h5.51v.42h3.81v.42h2.96c2.14,.8,4.4,1.29,6.35,2.54,1.1,.7,2.22,2.01,2.54,3.18,.24,.89,.56,2.05,.42,2.96-.79,5.36-5.58,6.81-10.16,9.11h-2.12v.42h-2.54v.42h-5.08v.42h-4.66v-.42h-5.08v-.42h-2.96v-.42h-2.12c-3-1.12-6.1-1.84-9.11-2.96-1.53-.57-2.98-1.38-4.45-2.12-1.19-.59-3.67-1.27-4.23-2.54h-1.27c-1.58,2.77-3.86,4.94-5.51,7.62h.42v.42h.42v.42h.42v.42h.85c.56,1.23,2.9,2.18,4.02,2.86,1.32,.79,2.81,1.35,4.23,1.91,2.86,1.11,5.82,1.78,8.68,2.86h2.12v.42h2.12v.42h3.39v.42h6.35v.42h7.62v-.42h5.51v-.42h2.96v-.42h2.12v-.42h1.69c2.34-.88,4.75-1.53,6.99-2.65s5.28-2.73,6.56-4.98h.42v-.85h.42v-.42h.42c.7-1.57,1.59-2.88,2.12-4.45,.45-1.35,.72-3.01,.85-4.45,.14-1.62-.22-3.06-.42-4.45-.23-1.58-.33-3.09-1.27-4.45Z"/><path class="b" d="M482,840.27c0-3.93-.56-7.18-1.69-10.59-.6-1.8-1.05-3.48-2.12-5.08-.66-.99-1.12-1.74-1.91-2.75-.55-.7-1.4-1.65-1.91-2.54h-.42v-.42h-.42c-1.59-2.8-5.08-4.45-7.83-5.82-2.69-1.34-5.47-2.02-8.26-3.07h-2.12v-.42h-3.39v-.42h-44.04v61.83h46.16v-.42h2.96c2.86-1.07,5.73-1.8,8.47-3.18,2.79-1.4,6.45-3.31,8.05-6.14h.42c1.13-2.04,3.16-3.34,4.23-5.29,.88-1.6,1.54-3.35,2.12-5.08,.32-.96,.59-1.71,.85-2.75,.23-.91,.26-1.71,.42-2.75,.06-.36,.35-.77,.42-1.27,.06-.41,0-.86,0-1.27v-2.54Zm-63.52,20.96v-42.35h33.46v.42h2.12c5.17,1.94,9.24,4.07,12.7,8.26,1.4,1.7,2.29,4.31,2.96,6.35s.85,4.13,.85,6.35c0,4.92-1.25,8.86-3.81,12.7-3.04,4.57-7.65,6.36-12.7,8.26h-35.57Z"/><path class="b" d="M688.24,831.59c-.13-.46-.26-.99-.42-1.48,0-.02-.38-1.19-.42-1.27-.91-1.83-1.84-3.81-2.96-5.51-1.33-2-3.86-3.52-5.08-5.72h-.42v-.42h-.42v-.42h-.42c-.6-1.32-2.87-2.26-4.02-3.07-1.24-.87-2.62-1.56-4.02-2.22-2.73-1.29-5.64-2.12-8.47-3.18h-2.12v-.42h-2.54v-.42h-4.66v-.42h-5.08v.42h-4.66v.42h-2.96v.42h-1.69c-2.82,1.06-5.68,1.88-8.47,3.03-3.22,1.34-5.64,3.52-8.47,5.43h-.42v.42h-.42v.42h-.42c-1.23,2.24-3.79,3.61-5.08,5.72-.45,.74-.78,1.8-1.27,2.54-.41,.61-.62,1.02-.85,1.69-.1,.31-.29,.97-.42,1.27-1.61,3.56-2.12,6.95-2.12,11.22,0,2.04,.17,3.9,.42,5.72,.14,1,.15,1.8,.42,2.75,.13,.46,.26,.99,.42,1.48,0,.02,.38,1.19,.42,1.27,.91,1.83,1.84,3.81,2.96,5.51,1.33,2,3.45,3.54,4.66,5.72h.85v.42h.42c.89,1.58,2.81,2.41,4.23,3.39,1.32,.9,2.77,1.64,4.23,2.33,2.87,1.35,5.93,2.07,8.89,3.18h2.12v.42h2.96v.42h13.55v-.42h2.96v-.42h2.12c2.91-1.09,5.9-1.89,8.68-3.28,1.53-.76,3.05-1.5,4.45-2.44,1.48-.99,2.75-2.17,4.23-3.18h.42v-.42h.42c.61-1.11,1.75-1.79,2.54-2.75,.74-.9,1.47-2,2.12-2.96,1.17-1.75,2.31-3.54,2.96-5.51,1.2-3.61,1.69-7.06,1.69-11.22v-2.75c0-1.2-.27-1.95-.42-2.96-.15-1-.15-1.8-.42-2.75Zm-33.03,30.91v.42h-11.43v-.42h-2.54c-4.75-1.78-8.92-3.07-12.92-6.25-6.37-5.06-9.18-14.49-6.56-22.34,1.39-4.17,3.92-8.26,8.05-11.01,3.61-2.41,7.35-3.76,11.43-5.29h2.54v-.42h4.23v-.42h2.96v.42h4.23v.42h2.54c4.62,1.73,9.09,3.2,12.92,6.35,6.53,5.37,9.24,14.62,6.56,22.66-1.45,4.34-4.08,7.94-8.05,11.01-3.33,2.58-7.57,3.42-11.43,4.87h-2.54Z"/><path class="b" d="M874.15,845.99h-.42c-.76-1.33-2.09-2-3.18-2.96-1.13-1-2.22-2-3.39-2.96-2.17-1.79-4.51-3.42-6.78-5.08-2.33-1.7-4.62-3.43-6.99-5.08-1.13-.79-2.25-1.56-3.39-2.33-.88-.59-2.51-1.34-2.96-2.33h-.85c-4.91-3.33-9.94-6.37-15.03-9.42-2.46-1.48-5.04-2.73-7.62-4.02-2.38-1.19-5.38-2.19-7.41-3.92h-.85v63.1h10.59v-45.74h.42c.48,1.03,2.64,1.86,3.6,2.44,1.36,.81,2.72,1.56,4.02,2.44,2.47,1.66,5.15,3,7.62,4.66,2.59,1.74,5.39,3.46,7.83,5.4,1.33,1.05,2.68,2.03,4.02,3.07,1.13,.87,2.64,1.45,3.39,2.75h.42c2.57,1.74,4.79,4,7.2,5.93,2.37,1.9,4.61,3.97,6.78,6.14s4.7,4.57,6.56,6.99c1.9,2.46,4.64,4.14,6.14,6.78h.85v-62.68h-10.59v36.84Z"/><path class="b" d="M573.48,835.4h-1.27c-.56-.28-1.13-.56-1.69-.85h-1.69v-.42h-2.12v-.42h-2.54v-.42h-2.54v-.42h-4.23v-.42h-16.09v.42h-3.81v.42h-2.96v.42h-2.12v.42h-2.12v.42h-2.12c-.42,.28-.85,.56-1.27,.85h-1.69v-26.26h-10.59v61.83h10.59v-22.66c0-1.76,.97-1.73,2.54-2.26,1.28-.43,2.55-.87,3.81-1.34h2.12v-.42h2.12v-.42h2.54v-.42h3.81v-.42h14.4v.42h3.81v.42h2.96v.42h2.12c1.76,.66,7.33,1.24,8.05,2.96,.4,.95,0,2.98,0,4.02v19.69h10.59v-61.83h-10.59v26.26Z"/><path class="b" d="M355.38,845.99h-.42c-.45-.91-2.14-2.09-2.96-2.75-1.12-.91-2.27-1.82-3.39-2.75-2.18-1.82-4.42-3.72-6.78-5.29-2.29-1.53-4.56-3.23-6.78-4.87-1.11-.83-2.23-1.56-3.39-2.33-.9-.6-2.48-1.34-2.96-2.33h-.85c-.5-1.08-2.63-1.87-3.6-2.54-1.23-.84-2.53-1.67-3.81-2.44-2.53-1.51-5.03-3.05-7.62-4.45-2.61-1.41-5.17-3.01-7.83-4.34-2.46-1.23-5.49-2.27-7.62-4.02h-.85v63.1h10.59v-45.31h.85c2.22,1.86,5.16,3.4,7.62,4.87,2.5,1.49,5.04,2.89,7.41,4.55,2.53,1.77,5.09,3.52,7.62,5.29,2.53,1.77,4.84,3.88,7.41,5.61h.42c.54,1.16,2.43,1.97,3.39,2.75,1.16,.96,2.28,1.97,3.39,2.96,2.28,2.05,4.62,4.2,6.99,6.14,2.62,2.15,4.39,4.82,6.78,7.2,1.1,1.1,2.1,2.29,2.96,3.39,.95,1.21,2.4,2.03,3.18,3.39h.85v-62.68h-10.59v36.84Z"/><path class="b" d="M237.22,822.7v48.28h11.01v-61.83h-11.01v13.55Z"/><path class="b" d="M721.27,706.88c-1-2.04-2.39-3.89-3.39-5.93-.42-.87-.71-1.7-1.27-2.54-.57-.86-1.25-2-1.69-2.96-1.79-3.88-4.05-7.59-5.93-11.43-.91-1.87-2.06-3.65-2.96-5.51-.5-1.03-1.1-1.98-1.69-2.96-.5-.83-1.19-1.73-1.27-2.75h-.42c.08-.49-.07-.91-.42-1.27v-.42h-.42v-.85h-.42v-.42c-2.1-3.8-4.16-7.37-5.93-11.22-.47-1.01-1.21-1.98-1.69-2.96-.42-.86-.86-1.7-1.27-2.54-.9-1.85-2.8-3.59-2.96-5.72h-.42c.04-.8-.68-1.49-1.06-2.12-.41-.69-.56-1.4-1.06-2.12v-.42h-.42v-.85h-.42v-.42c-1.1-2-2.01-3.76-2.96-5.72-.5-1.02-1.21-1.97-1.69-2.96-.5-1.02-1.06-2.01-1.69-2.96-2.47-3.7-4.04-8.04-6.35-11.86-2.32-3.83-3.97-8.06-6.35-11.86-.61-.97-1.19-1.94-1.69-2.96-.18-.37-.24-.9-.42-1.27-.31-.63-.95-1.05-1.27-1.69-.78-1.58-2.4-3.93-2.54-5.72h-.42c-2-3.31-3.34-6.9-5.29-10.16-1.99-3.32-3.53-6.87-5.51-10.16-1.01-1.68-1.9-3.54-2.75-5.29-.85-1.75-2.15-3.31-2.96-5.08-1.56-3.39-3.45-6.52-5.08-9.95h-29.22c-2.03,3.36-3.79,6.73-5.51,10.16-1.72,3.45-3.7,6.76-5.51,10.16-3.61,6.82-7.19,13.52-11.01,20.33-2.13,4.67-4.98,8.78-7.2,13.34-2.15,4.41-4.61,8.74-6.78,13.13-.32,.65-.96,1.06-1.27,1.69-.27,.55-.57,1.12-.85,1.69-.54,1.11-1,2.35-1.69,3.39-1.31,1.96-2.36,4.25-3.39,6.35-2.22,4.55-4.91,8.75-7.2,13.34-.92,2.01-2.04,3.81-2.96,5.72-.46,.95-1.18,1.86-1.69,2.75-.5,.88-.85,1.84-1.27,2.75-.47,1.01-1.21,1.98-1.69,2.96-.42,.86-.86,1.7-1.27,2.54-.9,1.85-2.8,3.59-2.96,5.72h-.42v.85h-.42v.42h-.42v.42c-.9,1.96-1.8,3.97-2.96,5.72-.62,.93-1.23,1.95-1.69,2.96-.47,1.02-1.22,1.94-1.69,2.96-1.81,3.94-3.9,7.9-6.14,11.65-2.23,3.71-4.25,7.76-6.14,11.65-1.94,3.99-4.34,7.62-6.35,11.65h36c1.45-2.56,3.43-4.6,5.08-6.99,1.62-2.34,3.54-4.74,5.29-6.99,3.47-4.44,7.98-8.41,12.07-12.49,3.61-3.61,7.89-7.19,12.28-9.74,3.96-2.31,8.19-4.57,12.49-6.25,4.1-1.59,8.39-2.59,12.49-4.13h2.12v-.42h2.12v-.42h2.96v-.42h3.81v-.42h13.13v.42h3.81v.42h2.96v.42h2.12v.42h2.12c.66,.25,1.93,.35,1.69,1.27h2.54c4.57,2.29,9.08,4.21,12.7,7.83,2.18,2.18,3.44,3.88,4.66,6.35,.25,.52,.78,1.01,1.06,1.48,.28,.47,.4,1.01,.64,1.48,.55,1.14,1.24,2.07,1.91,3.18,2.4,3.99,3.97,8.6,6.56,12.49,1.35,2.02,2.04,4.33,3.39,6.35,1.3,1.95,2.21,4.01,3.39,6.14h36.42c-1.78-3.91-4.08-7.43-5.93-11.22Zm-121.97-66.06c.58-1.19,1.53-2.19,2.12-3.39,.56-1.15,.96-2.29,1.69-3.39,1.34-2.01,2.05-4.34,3.39-6.35,.73-1.1,1.13-2.24,1.69-3.39,.58-1.2,1.54-2.2,2.12-3.39,2.15-4.41,4.61-8.74,6.78-13.13,.32-.65,.96-1.06,1.27-1.69,.27-.55,.57-1.12,.85-1.69,.54-1.11,1-2.35,1.69-3.39,.73-1.1,1.13-2.24,1.69-3.39,.55-1.12,1.59-1.85,1.69-3.18h.42c.25,2.02,2.09,3.93,2.96,5.72,.96,1.97,2.01,3.97,2.96,5.93,1,2.04,2.39,3.88,3.39,5.93,.96,1.97,2.01,3.97,2.96,5.93,1.97,4.04,4.48,7.79,6.35,11.86,.95,2.06,2.39,3.89,3.39,5.93,.94,1.92,1.97,3.73,2.96,5.72h-2.54v-.42h-4.23v-.42h-16.52v.42h-4.66v.42h-2.96v.42h-2.96v.42h-2.12v.42h-2.12v.42h-2.12c-2.08,.78-4.25,1.2-6.35,1.91-1.94,.65-4.84,.87-6.35,2.33h-.85c1.05-2.3,2.32-4.37,3.39-6.56Z"/><path class="b" d="M427.79,692.9c2.1,4.32,4.68,8.4,6.78,12.7,2.08,4.27,4.62,8.18,6.78,12.49h36.42c-.9-1.97-1.79-3.96-2.96-5.72-1.17-1.75-1.8-3.76-2.96-5.51-.62-.93-1.23-1.95-1.69-2.96-.18-.38-.24-.89-.42-1.27-.31-.63-.95-1.05-1.27-1.69-.41-.84-.85-1.68-1.27-2.54-.29-.6-.45-1.1-.85-1.69-.2-.3-.64-.89-.85-1.27-2.03-3.71-3.57-7.89-5.93-11.43-1.18-1.77-1.79-3.74-2.96-5.51-1.2-1.8-1.98-3.74-2.96-5.72h-.42c.08-.49-.07-.91-.42-1.27v-.42h-.42v-.85h-.42v-.42c-1.79-3.92-4.16-7.38-5.93-11.22-.86-1.88-2.07-3.66-2.96-5.51-.86-1.76-2.81-3.71-2.96-5.72h-.42c-.25-1.61-1.3-2.78-2.12-4.23v-.42h-.42v-.85h-.42v-.42c-1.87-4.09-4.41-7.66-6.35-11.65-.96-1.96-2.01-3.97-2.96-5.93-.99-2.04-2.44-3.87-3.39-5.93-1.87-4.07-4.39-7.82-6.35-11.86-.96-1.97-2.01-3.97-2.96-5.93-.88-1.81-2.8-3.64-2.96-5.72h-.42c.05-.97-.79-1.79-1.27-2.54-.5-.77-.86-1.72-1.27-2.54-.84-1.69-1.79-3.47-2.75-5.08-1.98-3.3-3.51-6.85-5.51-10.16-1.02-1.7-1.67-3.61-2.75-5.29-.55-.86-.84-1.66-1.27-2.54-.46-.94-1.18-1.6-1.69-2.54-.91-1.65-1.54-3.43-2.54-5.08-.95-1.57-1.72-3.15-2.54-4.87h-29.22c-2.01,3.32-3.8,6.75-5.51,10.16-.87,1.73-1.74,3.4-2.75,5.08-1,1.66-1.62,3.44-2.75,5.08-.57,.83-.84,1.87-1.27,2.75-.46,.94-1.18,1.6-1.69,2.54-.91,1.66-1.51,3.45-2.54,5.08-1.03,1.64-1.7,3.38-2.54,5.08-.46,.94-1.27,1.61-1.69,2.54-.34,.74-.75,1.48-.85,2.33h-.42c.08,1.05-1.26,2.28-1.69,3.18-.56,1.15-.96,2.29-1.69,3.39-.73,1.1-1.13,2.24-1.69,3.39-.58,1.19-1.53,2.19-2.12,3.39-2.15,4.41-4.63,8.72-6.78,13.13-.58,1.19-1.53,2.19-2.12,3.39-.56,1.15-.96,2.29-1.69,3.39-1.34,2.01-2.05,4.34-3.39,6.35-.73,1.1-1.13,2.24-1.69,3.39-.58,1.19-1.53,2.19-2.12,3.39-1.08,2.21-2.25,4.28-3.39,6.56-1.79,3.92-4.16,7.38-5.93,11.22-.86,1.88-2.07,3.66-2.96,5.51-.86,1.76-2.81,3.71-2.96,5.72h-.42v.85h-.42v.85h-.42c.06,.8-.93,2.05-1.27,2.75-.5,1.02-1.06,2.01-1.69,2.96-1.23,1.84-2,3.97-2.96,5.93-.25,.52-.78,1.02-1.06,1.48-.28,.47-.41,1-.64,1.48-.46,1.01-1.08,2.04-1.69,2.96-1.22,1.83-2.03,3.81-3.18,5.72-2.24,3.73-3.77,7.98-6.14,11.65-.62,.95-1.2,1.95-1.69,2.96-.49,1-1.2,1.94-1.69,2.96-.94,1.93-1.96,3.71-2.96,5.72h36.42c-.15-.97,1.58-2.83,2.12-3.6,.84-1.21,1.7-2.18,2.54-3.39,1.68-2.41,3.63-4.65,5.51-6.99,6.52-8.16,15.07-16.6,24.14-22.02,3.98-2.38,8.11-4.75,12.49-6.46,4.1-1.59,8.38-2.59,12.49-4.13h2.12v-.42h2.12v-.42h2.96v-.42h3.81v-.42h13.13v.42h3.81v.42h2.96v.42h2.12v.42h2.12c.77,.29,1.77,.42,2.12,1.27h2.12c4.44,2.22,9.16,4.16,12.7,7.62,3.69,3.6,5.91,8.11,8.05,12.49Zm-77.92-52.09c.32-.65,.96-1.06,1.27-1.69,.27-.55,.57-1.12,.85-1.69,.54-1.11,1-2.35,1.69-3.39,1.32-1.98,2.36-4.24,3.39-6.35,1.14-2.33,2.68-4.45,3.81-6.78,.54-1.11,1.15-2.28,1.69-3.39,.28-.57,.58-1.14,.85-1.69,.31-.63,.95-1.05,1.27-1.69,.47-.95,.81-2.01,1.27-2.96,.58-1.19,1.53-2.19,2.12-3.39,1.09-2.25,2.29-4.52,3.39-6.78,.98-2.02,3.21-4.27,3.39-6.56h.42c1.83,4.02,4.01,7.75,5.93,11.65,.32,.65,.96,1.06,1.27,1.69,.18,.37,.24,.9,.42,1.27,.5,1.02,1.06,2.01,1.69,2.96,1.23,1.84,2.01,3.97,2.96,5.93,.5,1.02,1.21,1.97,1.69,2.96,.5,1.02,1.08,2.01,1.69,2.96,1.2,1.86,2.05,3.94,2.96,5.93,.47,1.01,1.21,1.98,1.69,2.96,.5,1.02,1.06,2.02,1.69,2.96,1.18,1.77,1.99,3.76,2.96,5.72h-2.12v-.42h-4.66v-.42h-16.52v.42h-4.66v.42h-2.96v.42h-2.96v.42h-2.12v.42h-2.12v.42h-2.12c-4.18,1.57-8.7,2.23-12.7,4.23h-.85c1.05-2.3,2.31-4.38,3.39-6.56Z"/><path class="b" d="M229.18,667.91c-.12-.73,0-1.59,0-2.33,0-.94-.3-1.35-.42-2.12-.25-1.57-.36-3-.85-4.45-.97-2.9-2.02-6.07-3.81-8.68v-.42h-.42v-.42h-.42c-1.49-3.35-4.73-6.29-7.62-8.68-2.91-2.4-5.62-4.67-8.89-6.56-.71-.41-2-1.08-1.91-1.69,.1-.68,1.84-1.5,2.33-1.91,1.49-1.23,3.24-2.48,4.45-4.02,1.09-1.39,2.63-2.9,3.6-4.45,.45-.71,.75-1.58,1.27-2.33,.37-.53,.92-1.39,.85-2.12h.42v-.42c.39-.4,.69-1.43,.85-1.91,.26-.78,.28-1.25,.42-2.12,.09-.56,.76-1.33,.85-1.91,.05-.34-.05-.71,0-1.06,.05-.37,.38-.57,.42-.85,.41-2.57,.42-5.09,.42-7.83s-.06-5.42-.42-8.05c-.17-1.21-.77-2.63-1.06-3.81-.16-.66-.43-1.29-.64-1.91-.21-.62-.57-1.14-.42-1.91h-.42v-.42c-.62-.67-.8-1.97-1.27-2.75-.47-.78-.87-1.73-1.27-2.54-.52-1.05-1.5-1.99-2.12-2.96-.58-.93-1.36-1.63-2.12-2.54-3.02-3.66-6.57-7.05-10.59-9.74-3.53-2.37-7.07-4.4-11.01-6.14-3.57-1.58-7.37-2.45-11.01-3.81h-2.12v-.42h-2.12v-.42h-3.39v-.42h-5.93v-.42H23.36v165.16H173.7v-.42h5.08v-.42h3.39v-.42h2.54v-.42h2.12c3.75-1.41,7.69-2.15,11.43-3.6,3.88-1.5,7.75-3.5,11.22-5.72,4.1-2.61,7.79-6.28,10.8-9.95,1.52-1.86,2.56-3.62,3.81-5.51,1.05-1.58,2.39-3.78,2.54-5.72h.42v-.85c.99-1.09,.84-3.15,1.27-4.45,.45-1.36,.69-2.99,.85-4.45,.17-1.6,.42-2.89,.42-4.45v-2.12c0-.35,.04-.72,0-1.06-.06-.45-.37-.74-.42-1.06Zm-165.16-82.37h101.21v.42h2.54c3.68,1.84,6.7,3.09,9.32,6.35,2.05,2.56,2.96,5.9,2.96,9.32s-1.38,6.82-3.39,9.53c-2.27,3.06-5.44,4.42-8.89,6.14h-2.12v.42H64.02v-32.19Zm108.41,99.94v.42h-2.54v.42H64.02v-36.84h102.91v.42h3.81v.42h2.12c4.09,2.04,7.85,2.99,11.01,6.56,2.96,3.34,3.78,6.53,4.45,10.8,.53,3.38-.64,8.22-2.75,10.8-1.53,1.87-3.45,3.48-5.51,4.66-1.74,1-3.71,1.43-5.51,2.33h-2.12Z"/><path class="b" d="M939.79,553.78v88.51h-.42c-1.16-2.1-3.7-3.84-5.51-5.29-2.04-1.64-3.91-3.45-5.93-5.08-3.99-3.22-7.83-6.59-11.86-9.74-3.87-3.03-7.78-6.15-11.86-8.89-2.04-1.37-3.95-2.98-5.93-4.45-1.63-1.21-4.5-2.42-5.51-4.23h-.85c-.79-1.59-3.61-2.83-5.08-3.81-1.86-1.24-3.64-2.57-5.51-3.81-3.68-2.45-7.33-4.96-11.01-7.41-12.3-8.2-25.2-16.2-38.54-22.87-6.45-3.23-12.85-6.6-19.48-9.53-6.33-2.8-13.03-4.36-19.48-6.78h-2.12v-.42h-2.96v-.42h-3.39v168.97h36.84v-113.92h.85c.5,1.08,2,1.33,2.96,1.91,1.06,.63,2.13,1.34,3.18,2.01,2.08,1.34,4.28,2.48,6.35,3.81,7.47,4.8,15.06,9.37,22.44,14.29,3.77,2.51,7.89,4.92,11.43,7.73,1.79,1.42,3.72,2.6,5.51,4.02,1.44,1.14,4.46,2.25,5.29,3.92h.42c3.67,2.43,6.94,5.4,10.59,7.83,3.67,2.45,7.11,5.33,10.59,8.05,6.31,4.94,12.55,9.94,18.85,14.93,6.37,5.05,12.51,10.44,18.85,15.56,3.19,2.58,6.16,5.46,9.32,8.05,1.73,1.42,3.52,3.09,5.08,4.66,1.38,1.38,2.87,2.45,4.23,3.81,1.66,1.66,3.46,3.03,5.08,4.66,1.39,1.39,2.71,2.99,4.23,4.23,1.77,1.45,3.43,3.01,5.08,4.66,1.36,1.36,3.3,2.77,4.23,4.45h.85v-169.4h-36.84Z"/><path class="b" d="M521.81,444.52h.42l.42,.85h.85v.42h.42v.42h.85v.42h.42v.42h.85c.53,1.14,2.59,1.97,3.6,2.65,1.22,.81,2.55,1.36,3.81,2.12,2.38,1.42,4.86,2.58,7.41,3.71,2.5,1.11,5.05,2.11,7.62,3.03,2.52,.91,5.23,1.27,7.62,2.47h2.12c.56,.28,1.13,.56,1.69,.85h2.12v.42h2.54v.42h2.96v.42h3.81v.42h7.2v.42h5.08v-.42h7.62v-.42h3.39v-.42h2.54v-.42h2.96v-.42c-.14-.28-.28-.56-.42-.85-1.46-2.54-3.56-4.8-5.51-6.99-1.94-2.17-3.92-4.55-5.51-6.99h-12.7v-.42h-4.23v-.42h-2.96v-.42h-2.54v-.42h-2.12c-.56-.28-1.13-.56-1.69-.85h-2.12c-2.85-1.07-5.8-1.82-8.68-2.82-2.85-.99-5.51-2.31-8.26-3.53-2.91-1.29-5.73-2.81-8.47-4.45-3.03-1.8-5.55-4.16-8.47-6.14h-.42c-.6-1.09-1.63-1.59-2.54-2.33-1.07-.86-2-2-2.96-2.96-1.85-1.85-3.45-3.53-5.08-5.51-.59-.72-1.68-2.07-2.12-2.96-.62-1.25-.11-1.46,.42-2.54,.96-1.98,1.99-3.93,2.96-5.93,3.1-6.36,4.96-13.18,7.2-19.9,.2-.59,.23-1.12,.42-1.69,.06-.17,.42-1.24,.42-1.27,.07-.41-.06-.86,0-1.27,.07-.49,.36-.61,.42-1.06,.05-.35-.05-.71,0-1.06,.07-.48,.37-.94,.42-1.27,.07-.41-.06-.86,0-1.27,.07-.48,.37-.94,.42-1.27,.14-.9-.11-1.85,0-2.75,.11-.88,.42-1.35,.42-2.33v-5.08c0-3.14,.46-6.64,0-9.74-.25-1.7-.6-3.78-.85-5.51-.06-.42,.06-.86,0-1.27-.05-.36-.38-.6-.42-.85-.07-.41,.06-.86,0-1.27-.07-.48-.37-.94-.42-1.27-.55-3.47-1.03-6.9-2.12-10.16-.56-1.68-1.13-3.4-1.69-5.08-.28-.85-.56-1.69-.85-2.54-.22-.67-.3-1.74-.85-2.33,0-1.13-.91-2.53-1.27-3.6-.45-1.34-1.11-2.53-1.69-3.81-.55-1.19-.79-2.45-1.48-3.6-.73-1.21-1.24-2.56-1.91-3.81-4.95-9.33-10.78-18.19-18.85-26.26-1.16-1.16-1.87-2.11-3.18-3.18-1.06-.87-1.99-1.99-2.96-2.96-2.11-2.11-4.51-3.83-6.78-5.72-4.1-3.41-8.7-6.32-13.13-9.32h-.85v-.42h-.42v-.42h-.85v-.42h-.85v-.42h-.42v-.42h-.85c-2.56-2.16-6.1-3.48-9.11-4.98-1.54-.77-2.98-1.59-4.45-2.44-1.18-.68-3.66-1.46-4.23-2.75h-.85v-.42h-.42v-.42h-.85v-.42h-.42v-.42h-.85v-.42h-.42v-.42h-.42c-.4-.86-1.99-1.91-2.75-2.54-1.02-.84-2-1.58-2.96-2.54-1.84-1.84-3.41-4.07-4.87-6.14-2.24-3.18-3.45-6.95-4.66-10.59-1.11-3.33-2.54-7.07-2.54-10.8,0-1.78-.42-3.37-.42-5.29v-5.29c0-1.84-.07-3.8,.21-5.51,.14-.82,.08-1.84,.21-2.75,.12-.83,.57-1.45,.42-2.33,0-1.05,.29-1.68,.42-2.54,.06-.41-.06-.86,0-1.27,.08-.55,.35-.8,.42-1.27,.28-1.83,.44-3.34,.85-5.08,.4-1.71,1.12-3.59,1.69-5.29l.42-1.27c.09-.28,.3-1.02,.42-1.27,.38-.77,1.08-1.31,.85-2.33h.42c0,1.29-.23,2.32-.42,3.6-.09,.62-.33,1.01-.42,1.69-.08,.55,.09,1.14,0,1.69-.08,.53-.42,.99-.42,1.69s-.11,1.31-.21,1.91c-.17,1.02-.04,2.28-.21,3.39-.11,.71-.42,1.04-.42,1.91v1.48c0,1.17-.28,1.95-.42,2.96-.28,1.95,0,4.17,0,6.14,0,4.44,.26,8.53,.85,12.7,.58,4.16,1.72,8.84,3.6,12.49,.51,1,1,2.13,1.48,3.18,.22,.48,.35,1.01,.64,1.48,.27,.45,.81,.97,1.06,1.48,1.06,2.15,2.56,3.96,3.81,6.14h.85c1.45-2.55,4.15-4.74,5.93-6.99,1.92-2.44,4.18-4.42,5.72-6.99,1.31-2.19,2.94-4.19,4.23-6.35,.63-1.05,1.37-2.08,1.91-3.18,.49-1,1.2-1.94,1.69-2.96,.52-1.07,.74-2.31,1.27-3.39,.5-1.02,.91-1.88,1.27-2.96,.7-2.11,1.41-4.22,2.12-6.35,.35-1.06,.56-2.05,.85-3.18,.22-.89,.71-2.06,.85-2.96,.18-1.16,.27-2.1,.42-3.18,.08-.55-.08-1.14,0-1.69,.08-.6,.34-.98,.42-1.48,.3-1.94,0-4.18,0-6.14,0-1.27-.42-2.08-.42-3.39,0-1.06-.45-1.85-.42-2.75v-1.27c-.47-.47-.54-1.56-.64-2.12-.12-.73-.41-1.44-.64-2.12-.47-1.4-.74-2.86-1.27-4.23-1.15-2.94-2.95-5.55-4.66-8.26-3.76-5.97-10.04-9.22-16.52-11.65h-2.12v-.42h-7.2v.42h-2.12c-3.03,1.14-5.99,2.12-8.68,3.92-3.1,2.07-5.81,4.66-8.05,7.52-2.05,2.62-3.85,5.63-4.87,8.68-.47,1.41-1.22,2.82-1.69,4.23-.24,.71-.19,1.41-.42,2.12-.2,.61-.58,1.15-.42,1.91v.42c-.14,.28-.28,.56-.42,.85,0,1.78-.61,3.41-.85,5.08-.25,1.76-.42,3.29-.42,5.08v10.16h-.42c0-4.28-.85-8.15-.85-12.49v-6.35c0-2.16,.15-4.21,.42-6.14,.14-.97-.14-2,0-2.96,.14-.97,.42-1.64,.42-2.75,0-1.82,.6-3.73,.85-5.51,.55-3.89,1.62-7.53,2.54-11.22,.97-3.86,2.15-7.5,3.39-11.22,1.28-3.83,3.11-7.5,4.66-11.22,1.59-3.85,3.98-7.41,6.14-11.01,2.29-3.81,4.97-7.42,7.41-11.22,1.3-2.03,3.13-3.81,4.66-5.72,1.53-1.91,3.09-3.72,4.87-5.51s3.39-3.81,5.29-5.72c1.62-1.62,3.95-3.3,5.08-5.29h.42c.05,.74-1.26,2.21-1.69,2.75-.73,.92-1.51,1.63-2.12,2.54-1.29,1.94-2.96,3.54-4.23,5.51-2.33,3.6-4.81,7.16-6.99,10.8-2.15,3.59-4.41,7.04-6.14,10.8-.87,1.9-2.09,3.61-2.96,5.51-.36,.78-.47,1.78-.85,2.54-.41,.84-1.35,1.73-1.27,2.75h-.42v.85h3.81v-.42h3.39v-.42h2.54c4.4-1.65,9.02-2.42,13.34-4.34,8.74-3.88,16.97-8.82,23.72-15.56,3.6-3.6,6.65-7.56,9.11-11.65,1.12-1.86,2.28-3.89,2.96-5.93,.34-1.02,.93-1.96,1.27-2.96,.28-.84,.16-2.04,.85-2.75,0-1.69,.65-3.09,.85-4.66,.1-.76-.11-1.57,0-2.33,.12-.83,.42-1.36,.42-2.33,0-3.13-.37-6.51-1.27-9.32-1.14-3.55-2.66-6.86-5.93-9.53-2.72-2.22-6.05-3.22-9.32-4.45h-2.54v-.42h-4.66v.42h-2.54c-3.82,1.43-7.77,2.4-11.43,4.23-3.99,2-7.71,4.13-11.22,6.78-4.05,3.05-7.59,6.74-11.22,10.38-1.7,1.7-3.13,3.66-4.66,5.51-1.36,1.65-2.83,3.75-3.81,5.72h-.42c.11,.87-1.28,2.5-1.69,3.18-.65,1.07-1.28,2.14-1.91,3.18-1.21,2.02-2.62,4.01-3.6,6.14-1.88,4.08-4.09,8.23-5.51,12.49-1.26,3.79-2.97,7.44-4.23,11.22-.64,1.91-1.06,3.82-1.69,5.72-.31,.93-.54,1.84-.85,2.75-.29,.88-.63,1.89-.85,2.75-.46,1.86-.67,3.71-1.27,5.51-.61,1.84-.65,3.87-1.27,5.72-.6,1.8-.54,3.56-.85,5.51-.04,.27-.37,.48-.42,.85-.04,.28,.04,.57,0,.85-.08,.53-.35,.74-.42,1.27-.06,.41,.06,.86,0,1.27-.08,.6-.35,.98-.42,1.48-.56,3.67-.45,7.36-1.06,11.01-.3,1.77-.21,3.81-.21,5.72,0,2.01-.42,3.62-.42,5.51,0,2.1,.42,3.73,.42,5.72,0,1.78-.25,3.75,0,5.51,.25,1.76,.59,3.97,.85,5.72,.27,1.82,.42,3.47,.42,5.29h.42c0,2.35,.49,4.31,.85,6.56,.38,.18,.52,.46,.42,.85v.85c.38,.18,.52,.46,.42,.85v.85c.16,1.02,.93,2.37,1.27,3.39,.75,2.26,1.37,4.53,2.12,6.78,.38,1.14,.9,2.26,1.27,3.39,.39,1.17,.89,2.25,1.27,3.39,.78,2.35,1.88,4.55,2.96,6.78,1.09,2.24,1.99,4.68,3.39,6.78,.74,1.11,1.36,2.26,2.12,3.39,.28,.41,.57,1.28,.85,1.69,.36,.54,.97,1.09,1.27,1.69,1.11,2.25,2.65,4.23,3.81,6.56h-5.51v.42h-5.51v.42h-3.81v.42h-2.54v.42h-2.54v.42h-2.54v.42h-2.12c-4.6,1.72-9.51,2.68-14.19,4.23-2.44,.81-4.83,1.71-7.2,2.68-2.17,.89-5.23,1.7-6.99,3.25h-.85v.42h-.85v.42h-.85v.42h-.85v.42h-.85v.42h-.85c-1.8,1.51-4.14,2.51-6.14,3.71-2,1.19-4.03,2.27-5.93,3.6-3.97,2.78-7.95,5.5-11.86,8.36-3.64,2.66-7.1,5.6-10.59,8.47-1.82,1.49-3.61,3.28-5.29,4.87-1.77,1.68-3.47,3.48-4.87,5.29-1.47,1.9-3.33,3.57-4.87,5.29-1.55,1.73-2.89,3.67-4.23,5.51-2.51,3.42-5.05,6.84-6.78,10.59-.85,1.85-2.19,3.41-2.96,5.29-.72,1.76-1.51,3.48-2.12,5.29-1.15,3.44-2.85,6.93-3.39,10.59-.52,3.52-1.27,6.83-1.27,10.59v8.05c0,.95,.47,1.49,.42,2.33,0,3.24,1.16,6.24,2.12,9.11,1.02,3.06,2.16,6.52,4.23,9.11,1.25,1.56,2.05,3.11,3.6,4.66,1.45,1.45,2.84,2.82,4.45,4.02,2.84,2.13,5.99,3.2,9.32,4.45h2.54v.42h6.35v-.42h2.54c3.22-1.21,6.49-2.26,9.32-4.23,3.32-2.32,6.39-5.47,8.47-8.68,1.01-1.56,1.75-3.04,2.54-4.66,.77-1.58,1.14-2.99,1.69-4.66,.93-2.79,2.12-5.98,2.12-9.11-.02-.94,.42-1.85,.42-2.96,0-1.17,.34-1.85,.42-2.96,.15-2.02,0-4.11,0-6.14,0-3.64,.09-7.13-.42-10.59-.52-3.53-1-7.46-2.12-10.8-1.18-3.54-1.96-7.15-3.39-10.59-1.51-3.63-3.29-7.19-5.51-10.59h-.85c-.61,1.07-1.52,2.04-2.12,2.96-.64,.98-1.31,1.98-1.91,2.96-1.22,2.03-2.62,4-3.6,6.14-1.61,3.49-3.44,6.93-4.66,10.59-1.16,3.49-2.56,7.12-3.18,10.8-.3,1.77-.81,3.52-1.06,5.29-.25,1.78-.34,3.54-.64,5.29-.57,3.44-.64,6.96-.64,10.59h-.42c.07-1-.75-2.45-1.06-3.39-.13-.38-.58-1.15-.64-1.48-.05-.33,.08-.73,0-1.06-.06-.24-.39-.44-.42-.64-.37-2.29-.85-4.42-.85-6.78,0-2.1-.32-4.49,0-6.56,.09-.56,.36-1,.42-1.69,.05-.56-.08-1.14,0-1.69,.08-.5,.34-.88,.42-1.48,.05-.35-.05-.71,0-1.06,.04-.31,.38-.39,.42-.64,.32-2.01,.64-4.03,1.27-5.93,.35-1.06,.94-2.1,1.27-3.18,.27-.89,.47-1.91,.85-2.75,1.88-4.16,4.4-7.89,6.78-11.86,5.11-8.52,13.78-16.05,21.6-22.87,7.16-6.25,15.47-11.12,23.72-15.88,3.73-2.15,7.87-3.61,11.86-5.15,3.88-1.5,7.97-2.28,11.86-3.74h2.12v-.42h2.54v-.42h2.54v-.42h3.39v-.42h4.23v-.42h16.52v.42h3.81v.42h2.54v.42h2.12v.42h2.12v.42h2.12c6.11,2.29,12.35,3.84,18.21,6.78,11.88,5.94,22.87,13.45,31.76,23.5,2.3,2.6,4.62,5.31,6.78,8.05,1.01,1.28,2.02,2.81,2.96,4.23,.35,.53,.72,1.34,1.06,1.91,.4,.67,1.13,1.19,1.48,1.91,.36,.72,.9,1.37,1.27,2.12,.6,1.23,.37,1.03-.42,2.12-.93,1.27-2.02,2.52-2.96,3.81-.97,1.33-2.16,2.77-2.96,4.23-.57,1.03-1.55,2.38-1.69,3.6h-.42c-.45,2.91-2.89,5.49-3.81,8.26-.9,2.71-2.08,5.14-2.54,8.05-.09,.59-.65,1.51-.85,2.12-.18,.53-.35,1.18-.42,1.69-.19,1.27-.44,2.37-.64,3.6-.38,2.4-.72,5-1.06,7.41-.65,4.62-.12,10.22,.42,14.61,.3,2.4,.52,5.15,1.27,7.41,.78,2.35,.91,4.86,1.69,7.2,.82,2.47,1.82,4.88,2.54,7.41,.36,1.27,.9,2.51,1.27,3.81,.25,.87,.59,2.67,1.27,3.39h.42c1.31-2.94,3.28-5.43,4.66-8.26,.62-1.28,1.41-2.68,1.91-4.02,.5-1.34,0-2.67-.21-4.02-.09-.56-.76-1.55-.85-2.12-.04-.22,.08-.62,0-.85-.04-.13-.41-.75-.42-.85-.2-1.26-.44-2.38-.64-3.6-.39-2.49-.68-4.84-1.06-7.41-.18-1.23-.42-2.38-.42-3.81v-3.39c0-2.61,.13-4.99,.42-7.41,.63-5.1,2.24-9.89,3.81-14.61,.85-2.56,2.2-5.07,3.6-7.41,1.39-2.32,2.67-4.75,4.02-7.2h.42c.25,2.01,1.49,3.84,2.12,5.72,.61,1.84,1.09,3.68,1.69,5.51,1.21,3.62,2,7.57,2.54,11.43,.89,6.36,1.35,13.79,.42,20.33-.26,1.8-.14,3.31-.42,5.08-.11,.68-.74,1.86-.85,2.54-.05,.33,.09,.74,0,1.06-.06,.22-.41,.99-.42,1.06-.59,3.66-1.84,6.78-2.96,10.16-1.19,3.58-2.58,6.78-4.23,10.16-1.73,3.55-3.68,6.78-5.93,10.16-1.19,1.79-2.35,3.32-3.81,5.08-.51,.61-1.19,1.93-1.69,2.54-.76,.92-1.79,1.62-2.54,2.54-1.39,1.71-2.86,3.37-4.66,4.87-.87,.73-1.68,1.55-2.54,2.33-.67,.61-1.72,1.09-2.12,1.91h-.42c-.73,1.44-3.33,2.71-4.66,3.6-1.55,1.03-3.04,2-4.66,2.96-3.13,1.87-6.31,3.79-9.74,5.22-3.24,1.35-6.43,2.76-9.74,3.95-3.19,1.15-6.56,1.7-9.74,2.89h-2.12v.42h-2.96v.42h-3.81v.42h-11.86v-.42h-2.54v.42h-.42c-1.53,2.68-4.81,5.02-6.99,7.2-1.24,1.24-2.41,2.56-3.39,3.81-.95,1.21-2.41,2.03-3.18,3.39v.42h1.27v.42h2.12v.42h2.12v.42h2.96v.42h4.23v.42h13.98v-.42h4.66v-.42h3.39v-.42h2.96v-.42h2.12v-.42h2.12v-.42h2.12c5.43-2.04,11.1-3.4,16.52-5.51,2.84-1.1,5.53-2.55,8.26-3.92,1.39-.69,2.68-1.45,4.02-2.22,1.15-.66,3.21-1.53,3.81-2.75h.85v-.42h.42v-.42h.85v-.42h.42c.65-1.47,3.6-2.91,4.87-3.92,1.78-1.41,3.46-2.93,5.08-4.55,1.76-1.76,3.53-3.53,5.29-5.29,1.52-1.52,3.19-3.02,4.23-4.87h.85c.99,1.77,2.99,2.87,4.23,4.45,1.21,1.54,2.73,3.16,4.23,4.66s3.09,2.81,4.66,4.23c1.16,1.05,3.61,2.19,4.23,3.6Zm-91.9-271.88h.42v.42h-.42v-.42Z"/><path class="b" d="M388.83,384.81v-.42h1.27c3.24-1.62,5.49-3.56,6.56-6.78,.85-2.54,1.06-5.13,1.06-8.05-1.04-8.4-3.89-16.19-9.11-22.87-3.08-3.95-6.62-7.67-10.8-10.8-1.82-1.37-3.51-2.67-5.51-3.81-1.9-1.09-3.98-1.78-5.93-2.75h-2.12v-.42h-2.96v.42c.6,.59,.56,1.86,.85,2.54,.34,.83,.68,1.73,1.06,2.54,.74,1.59,1.35,3.21,1.91,4.87,.6,1.8,1.7,3.38,2.54,5.08,.37,.75,.49,1.77,.85,2.54,.39,.85,.87,1.72,1.27,2.54,.84,1.71,1.91,3.5,2.96,5.08,1.05,1.58,1.91,3.49,2.96,5.08,1.21,1.82,2.4,3.36,3.81,5.08,.51,.62,1.19,1.9,1.69,2.54,.65,.83,1.59,1.39,2.12,2.33h-.85c-1.04-1.85-3.19-2.97-4.66-4.45-1.56-1.56-2.91-3.03-4.23-4.66-2.54-3.12-4.59-6.36-6.78-9.53-2.07-3-3.52-6.32-5.08-9.53-1.53-3.13-2.52-6.43-4.23-9.53h-.42c-.12,.82-.28,1.45-.42,2.33-.06,.35-.35,.78-.42,1.27-.06,.41,.07,.86,0,1.27-.05,.32-.37,.6-.42,1.06-.04,.34,0,.71,0,1.06,0,1.02-.3,1.68-.42,2.54-.11,.73,0,1.59,0,2.33,0,.34-.05,.72,0,1.06,.07,.5,.37,.92,.42,1.27,.12,.73,0,1.59,0,2.33,0,1.02,.3,1.47,.42,2.33,.25,1.67,.33,3.12,.85,4.66,.54,1.61,1.23,3.25,1.69,4.87,.46,1.6,1.34,3.18,2.12,4.66,.39,.73,.82,1.64,1.27,2.33,.44,.69,1.37,1.41,1.27,2.33h.42c1.91,3.4,5.22,6.69,8.47,9.11,1.6,1.19,3.16,2.46,4.87,3.49,1.54,.93,3.27,1.42,4.87,2.22h2.12v.42h4.66Z"/><path class="b" d="M582.79,363.21v-.42h3.81v-.42h2.54v-.42h1.69c4.39-1.64,8.77-3.3,11.86-6.99,2.8-3.35,3.81-7.14,3.81-11.65,.04-.59-.23-1.34-.42-1.91-.22-.65-.22-1.26-.42-1.91-.39-1.27-.79-2.66-1.48-3.81-.87-1.45-1.64-2.62-2.75-4.02-.81-1.02-2.25-2.34-2.96-3.6h-.42v-.42h-.42v-.42h-.42v-.42h-.42v-.42h-.85v-.42h-.42v-.42h-.42c-1.52-1.03-2.87-2.13-4.45-3.07-1.27-.76-2.7-1.35-4.02-2.01-2.74-1.37-5.74-2.02-8.47-3.39h-2.12c-.56-.28-1.13-.56-1.69-.85h-2.54v-.42h-3.39v-.42h-11.86v.42h-3.81v.42h-2.54c-.56,.28-1.13,.56-1.69,.85h-1.69c-2.62,.98-5.12,1.92-7.62,3.18-1.27,.64-2.73,1.23-3.81,2.12-1.1,.9-2.68,1.92-3.39,3.18h11.01v.42h5.08v.42h3.39v.42h2.54v.42h2.12v.42h2.12v.42h2.12c5.49,2.06,11.1,3.6,16.52,5.86,2.87,1.2,5.55,2.74,8.26,4.2,1.4,.75,2.72,1.56,4.02,2.44,1.15,.77,3.18,1.47,3.81,2.75h-.42c-1.41-1.37-4.32-2.09-6.14-2.82-1.95-.79-3.93-1.45-5.93-2.12-3.97-1.32-8.15-2.06-12.07-3.53h-2.12v-.42h-2.12v-.42h-2.12v-.42h-2.54v-.42h-2.96v-.42h-3.81v-.42h-5.51v-.42h-12.28v.42h-2.96v.42h.42v1.27h.42v.85c.82,1.43,1.26,2.91,2.12,4.23,.92,1.42,2.09,2.67,2.96,4.23,1.49,2.6,4.89,5.35,7.2,7.2,2.36,1.88,4.8,3.56,7.41,5.08,4.78,2.79,9.87,4.42,15.03,6.35h2.12v.42h2.12v.42h4.23v.42h6.78Z"/><path class="b" d="M731.01,330.18v-.42h2.12v-.42h1.69c1.5-.75,3.27-1.38,4.66-2.33,1.76-1.19,2.74-2.63,3.81-4.23,1.89-2.85,2.54-5.46,2.54-9.11,0-5.79-3.8-11.07-7.2-15.46-2.12-2.74-5.18-5.29-7.83-7.41-2.43-1.94-5.44-3.11-7.83-5.08h-.85c-3.01-2.62-7.79-3.29-11.43-4.66h-2.12v-.42h-2.12v-.42h-3.81v-.42h-6.35v.42h-2.96v.42h-1.69v.42h-1.27c-1,.87-6.85,2.99-5.08,4.66h2.12c3.87,1.45,7.99,2.1,11.86,3.6,4.06,1.57,8.13,3.29,11.86,5.51,4.2,2.5,8.09,4.96,11.86,8.05,1.97,1.62,4.11,3.27,5.93,5.08,1,1,1.7,1.93,2.54,2.96,.79,.97,1.93,1.65,2.54,2.75h-.42c-1.09-1.99-3.77-3.14-5.51-4.45-1.94-1.45-3.81-2.8-5.93-4.02-3.79-2.19-7.67-4.26-11.65-6.25-3.73-1.87-7.68-3.23-11.65-4.55-3.91-1.3-8.01-2.16-11.86-3.6h-2.12v-.42h-2.96v.42c-.2,.82,.28,1.88,.42,2.75,.15,.94,.96,2.04,1.27,2.96,.66,1.98,1.25,3.91,2.33,5.72,1.1,1.84,1.99,3.88,3.18,5.72,1.27,1.96,3.06,3.61,4.23,5.72h.42c1.07,2.35,3.51,4.08,5.51,5.72,2.04,1.67,3.88,3.4,6.14,4.76,3.92,2.36,8.25,3.6,12.49,5.19h2.12v.42h2.54v.42h8.47Z"/><path class="b" d="M434.15,314.09v.42h-3.39v.42h-2.54v.42h-1.69c-3.65,1.37-7.29,2.38-10.8,4.13-1.77,.89-3.77,2.03-5.29,3.28-1.17,.96-4.49,3.77-4.23,5.29h-.42v.85h-.42v.85h-.42c.18,.75-.21,1.68-.42,2.33-.26,.79-.42,1.4-.42,2.33v.42c0,5.03,3.54,9.45,8.05,12.07,4.18,2.43,8.61,3.6,13.13,5.29h2.12v.42h2.96v.42h5.51v.42h2.12v-.42h5.51v-.42h2.96v-.42h2.12c5.06-1.9,10.34-2.95,15.25-5.29,2.78-1.33,5.27-3.15,7.62-5.08,1.31-1.07,6.8-5.66,4.23-6.99h-2.96v-.42h-2.96v-.42h-3.39v-.42h-3.81v-.42h-5.08v-.42h-23.72v.42h-4.66v.42h-3.39v.42h-2.88c4.2-1.89,8.74-2.62,13.04-4.23h2.12v-.42h2.54v-.42h3.39v-.42h4.66v-.42h13.13v.42h5.51v.42h3.81v.42h3.39v.42h1.69v-.85h-.42v-.42h-.42v-.42h-.42c-1.11-2.01-3.73-3.54-5.51-4.87-1.78-1.33-3.92-2.38-5.93-3.39-3.82-1.91-7.88-2.95-11.86-4.45h-2.12v-.42h-2.12v-.42h-3.39v-.42h-9.74Zm-11.43,20.33h-.85c.28-.14,.56-.26,.85-.39v.39Z"/><path class="b" d="M271.95,289.95v.42h10.16v-.42h3.39v-.42h2.54c5.36-2.01,10.87-3.02,15.88-5.93,2.72-1.57,5.63-3.1,8.05-5.08,1.3-1.07,2.49-2.24,3.81-3.28,1.25-.99,2.77-2.05,3.6-3.49h.42c1.18-2.14,3.39-3.61,4.87-5.51,1.37-1.76,2.66-3.8,4.02-5.51,1.38-1.72,2.44-3.78,3.39-5.72,.38-.78,.57-1.72,.85-2.54,.25-.76,.91-1.91,.85-2.75v-1.27h-2.54v.42h-2.54c-.56,.28-1.13,.56-1.69,.85h-2.12c-4.24,1.59-8.8,2.42-13.13,3.74-4.34,1.32-8.75,2.85-12.92,4.62-4.38,1.86-8.65,3.9-12.92,6.03-2.16,1.08-4.23,2.33-6.35,3.39-1.17,.58-2.26,1.25-3.39,1.91-.88,.51-2.5,1.39-2.96,2.33h-.42c1.29-2.34,4.02-3.98,5.93-5.72,2.05-1.87,4.19-3.4,6.35-5.08,3.81-2.95,7.92-5.44,12.28-7.62,4.02-2.01,8.06-3.7,12.28-5.22,4.16-1.5,8.57-2.33,12.7-3.88h2.12v-.42h2.12v-.42h2.54v-.42h2.54c1.07-.4,1.92-.29,1.06-1.16-.48-.49-1.5-.69-2.12-.95-1.42-.6-2.78-1.33-4.23-1.84-2.87-1-5.84-1.76-8.68-2.82h-2.12v-.42h-2.54v-.42h-4.66v-.42h-5.51v.42h-4.66v.42h-2.54v.42h-2.12c-2.73,1.02-5.51,1.87-8.26,2.82-1.95,.68-6.89,2.04-7.83,3.95h-.85v.42h-.85v.42h-.42v.42h-.85c-.64,1.26-2.53,1.8-3.6,2.65-1.24,.98-2.44,1.98-3.6,3.07-2.44,2.31-4.58,4.46-6.56,6.99-1.03,1.31-1.88,2.47-2.75,3.81-.77,1.18-1.18,2.6-1.91,3.81-.7,1.16-.84,2.22-1.06,3.6-.05,.31-.36,.62-.42,1.06-.04,.28,.05,.57,0,.85-.12,.65-.49,1.01-.42,1.69,0,4.1,.79,7.31,2.75,10.59,2.35,3.91,6.42,5.22,10.38,7.2h2.12v.42h2.54Z"/><path class="b" d="M641.23,283.6v-.42h3.39v-.42h2.54v-.42h1.69c3.52-1.32,7.01-2.44,10.38-4.13,1.77-.89,3.72-1.68,5.29-2.86,1.42-1.07,3.78-2.46,4.66-4.02h.42v-.42h.42v-.85h.42v-.42h.42v-.42h.42v-.42h.42c-.02-.66,.33-1.18,.64-1.69,.39-.65,.55-1.05,.85-1.69,.42-.9,1.12-2.33,1.06-3.39,0-2,.06-3.91-.42-5.72-.54-2.04-2.69-4.22-4.45-5.72-3.26-2.79-7.73-3.61-11.65-5.08h-2.12v-.42h-3.39v-.42h-11.01v.42h-2.96v.42h-2.54c-5.19,1.95-10.46,3.11-15.46,5.61-2.63,1.32-5.53,2.56-7.83,4.34-2.34,1.81-5.68,3.9-7.2,6.56-.45,.81-1.24,1.31-1.69,2.12v.42h-.42v.42h-.42v.85h-.42v.42h27.95v-.42h6.35v-.42h4.23v-.42h2.96v-.42h2.54v-.42h2.54c2.1-.79,4.35-1.12,6.35-2.12h.42c-2.44,2.05-6.33,3.03-9.32,4.02-3.08,1.03-6.28,1.61-9.32,2.75h-2.12v.42h-2.12v.42h-2.54v.42h-2.96v.42h-4.23v.42h-5.93v.42h-13.98c.94,1.7,3.26,3.17,4.87,4.13,1.66,.99,3.34,1.88,5.08,2.75,3.37,1.69,6.85,2.81,10.38,4.13h2.12v.42h2.12v.42h3.39v.42h10.16Z"/><path class="b" d="M392.65,275.97v.42h-3.81v.42h-2.54v.42h-2.12c-3.04,1.14-6.11,2.01-9.11,3.25-1.52,.63-2.97,1.31-4.45,2.05-1.27,.63-3.63,1.4-4.23,2.75h-.85v.42h-.85v.42h-.42v.42h-.42v.42h-.85v.42h-.42v.42h-.42v.42h-.85v.42h-.42c-.89,1.59-2.74,2.47-3.81,3.81-1.06,1.32-2.5,2.57-3.39,4.02-.76,1.25-1.5,2.88-2.12,4.23-.29,.64-.2,1.45-.42,2.12-.2,.61-.58,1.15-.42,1.91,0,3.94,.46,7.2,2.75,10.16,2.77,3.59,6.55,4.44,10.38,6.35h1.69v.42h2.12v.42h3.81v.42h8.89v-.42h4.23v-.42h2.54v-.42h2.12c5.18-1.94,10.65-3.16,15.46-6.03,2.63-1.57,5.31-3.07,7.83-4.76,1.31-.88,2.58-1.77,3.81-2.75,1.16-.93,2.62-1.62,3.39-2.96h.42c1.06-1.92,3.28-3.19,4.66-4.87,1.2-1.46,2.14-3.15,2.96-4.87v-.42h.42v-1.27h.42v-1.27h.42v-.85h-4.23v.42h-5.08v.42h-4.23v.42h-3.81v.42h-2.96v.42h-2.54v.42h-2.54v.42h-2.54v.42h-2.12v.42h-2.12c-4.39,1.65-9.1,2.4-13.55,3.88-2.3,.77-4.55,1.61-6.78,2.54-2.22,.93-4.93,1.71-6.78,3.32h-.42c.78-1.39,2.75-2.46,4.02-3.39,1.35-.99,2.79-1.78,4.23-2.65,2.68-1.6,5.56-3.17,8.47-4.41,5.57-2.38,11.5-3.53,17.15-5.65h2.12v-.42h2.12v-.42h2.12v-.42h2.54v-.42h2.96v-.42h3.39v-.42h3.81v-.42h4.66v-.42h2.12c-.77-1.38-2.86-2.28-4.23-2.96-1.45-.72-2.96-1.34-4.45-1.98-2.96-1.26-6.1-1.98-9.11-3.11h-2.12v-.42h-2.54v-.42h-3.39v-.42h-10.59Z"/><path class="b" d="M725.93,220.92h-2.12c-4.01,1.5-7.81,3.06-11.65,4.98-1.99,.99-4.02,2.31-5.72,3.71-1.85,1.52-4.05,3.23-5.08,5.29h-.42c-.74,1.3-2.11,2.5-2.96,3.6-1.05,1.36-2.01,2.43-2.96,3.81-1.61,2.31-3.08,4.7-4.23,7.2-1.06,2.3-2.58,4.88-2.96,7.41-.23,1.52-1.34,5.83,0,7.2h.42c1.53-1.33,3.56-2.04,5.29-3.07,1.63-.98,3.23-2.12,4.87-3.07,3.47-2.02,6.84-4.14,10.16-6.35,3.54-2.36,6.87-4.92,10.16-7.62,1.69-1.39,3.52-2.67,5.08-4.23,1.49-1.49,3.62-3.03,4.66-4.87h.42c-1.03,1.87-2.52,3.29-3.6,5.08-1.04,1.73-2.53,3.38-4.02,4.87-3.16,3.16-6.2,6.58-9.74,9.53-3.23,2.69-6.67,5.08-10.16,7.41-3.22,2.14-7.19,3.64-10.16,6.14v.42h2.54v.42h10.16v-.42h2.96v-.42h2.12c3.71-1.39,7.47-2.46,11.01-4.23,3.97-1.99,7.36-4.58,10.8-7.31,3.68-2.92,6.47-7.02,8.68-10.69,1.95-3.24,4.23-6.79,4.23-10.8-.14-.81,.32-1.22,.42-1.91,.13-.89-.33-1.22-.42-1.91-.2-1.45-.05-2.56-.64-3.81-1.33-2.86-3.53-4.83-6.56-6.35h-1.27v-.42h-2.54v-.42h-3.81v.42h-2.96v.42Z"/><path class="b" d="M510.38,256.07c-.55,2.48-.9,5.03-1.69,7.41-.8,2.4-1.11,4.94-1.69,7.41-.29,1.23-.72,2.56-1.06,3.81-.14,.53-.53,1.19-.64,1.69-.15,.72,.13,1.1-.42,1.69h1.27c3.14-1.18,6.38-1.91,9.32-3.6,3.33-1.91,6.58-4.04,9.32-6.78,2.65-2.65,5.33-5.28,7.62-8.05,2.09-2.52,3.81-5.36,5.51-8.05,3.25-5.15,5.72-10.8,7.62-16.52,.85-2.55,1.31-5.33,1.69-8.05,.2-1.42,.42-2.64,.42-4.23,0-1.43,.42-2.37,.42-3.81,0-2.94-.42-5.35-.42-8.26,0-1.03-.29-1.46-.42-2.33-.09-.62,.09-1.28,0-1.91-.09-.58-.32-1.2-.42-1.91-.11-.71-.62-1.07-.42-1.91v-.42l-.42-.85c.08-1.07-.7-2.83-1.06-3.81-.48-1.29-.96-2.54-1.48-3.81-1.1-2.69-2.5-4.95-4.23-7.41-1.86-2.64-4.45-4.93-7.2-6.78-2.34-1.57-4.99-2.19-7.62-3.18h-3.81v-.42h-2.96v.42h-3.39c-2.73,1.02-5.73,1.56-8.26,3.07-2.84,1.69-5.58,3.63-8.05,5.82-2.7,2.4-5.18,5.39-6.99,8.26-.84,1.34-1.7,2.73-2.54,4.02-.82,1.27-1.31,2.5-2.12,3.81l-.42,.85v.42h-.42c-.22,1.46-1.24,2.66-1.69,4.02-.42,1.27-.85,2.54-1.27,3.81-.44,1.32-.89,2.69-1.27,4.02-.37,1.3-.42,2.74-.85,4.02-.42,1.25-.23,2.42-.42,3.81-.17,1.18-.42,2.08-.42,3.39v8.89c0,.73,.34,1.15,.42,1.69,.09,.53,0,1.15,0,1.69,0,.73,.34,1.15,.42,1.69,.41,2.55,.49,4.86,1.27,7.2,.39,1.17,.51,2.42,.85,3.6,.32,1.13,.95,2.26,1.27,3.39,.71,2.5,1.98,4.81,2.96,7.2,.51,1.25,1.42,2.44,2.12,3.6,.7,1.15,1.29,2.23,2.12,3.39,1.62,2.26,3.45,4.61,5.08,6.99h.85c.4-2.63,1.27-5.15,1.69-7.83,.09-.56,.76-1.56,.85-2.12,.13-.8,.22-1.2,.42-1.91,.38-1.35,.41-2.71,.85-4.02,1.55-4.66,2.88-9.46,4.23-14.19,1.37-4.79,3.09-9.47,4.66-14.19,1.59-4.76,3.16-9.57,5.08-14.19,.96-2.31,1.51-4.7,2.54-6.99,.29-.64,.2-1.44,.42-2.12,.18-.55,.66-1.14,.85-1.69,.27-.82,.93-2.32,.85-3.18h.42c0,2.84-.89,5.54-1.27,8.26-.39,2.79-.91,5.45-1.27,8.26-.62,4.87-1.86,9.74-2.54,14.61-.7,5.01-1.74,9.82-2.54,14.82,.02-.12-.41,1.22-.42,1.27-.08,.23,.04,.62,0,.85-.04,.24-.37,.5-.42,.85-.04,.28,.04,.57,0,.85-.17,1.16-.59,2.44-.85,3.6Zm9.32-54.63h.42v.85h-.42v-.85Z"/><path class="b" d="M291.85,193.6c.24,.48,.18,1.2,.42,1.69,.28,.58,.58,1.12,.85,1.69,.5,1.08,1.14,2.13,1.69,3.18,1.27,2.39,2.72,4.56,4.45,6.78,1.68,2.15,3.25,4.52,5.29,6.56,2.2,2.2,4.4,4.21,6.78,6.14,4,3.25,8.69,5.47,13.34,7.73,4.27,2.07,8.93,2.9,13.34,4.55h2.54v.42h2.96v.42h3.81v.42h11.86v-.42h3.39v-.42h2.54v-.42h1.69c1.12-.42,2.24-.72,3.39-1.06,2.11-.61,.76-1.36-.42-2.54-2.14-2.14-4.27-4.25-6.56-6.14-2.06-1.7-3.78-3.88-5.72-5.72-1.94-1.84-4-3.57-5.93-5.51-3.73-3.73-7.89-7.05-11.65-10.8-1.91-1.91-3.99-3.57-5.93-5.51-1.82-1.82-3.91-3.84-5.93-5.51-1.98-1.63-3.72-3.65-5.72-5.29-1.82-1.49-4.3-3.16-5.51-5.29h.42c1.22,2.13,4.49,3.53,6.35,5.08,2.1,1.75,4.42,3.27,6.56,4.98,7.58,6.02,15.47,11.76,23.29,17.47,3.92,2.86,8.06,5.57,11.86,8.58,1.88,1.49,3.82,2.87,5.72,4.34,1.52,1.18,4.68,2.21,5.51,4.02h1.27c.22-1.8,.42-3.69,.42-5.72v-2.54c0-.48,.06-1.01,0-1.48-.07-.56-.36-1.08-.42-1.48-.31-1.93-.25-3.72-.85-5.51-.61-1.82-1.09-3.69-1.69-5.51-1.24-3.71-2.52-7.5-4.23-11.01-1.91-3.92-4.79-7.24-6.78-11.22h-.42v-.42h-.42v-.85h-.42c-.98-1.74-2.57-3.37-3.81-4.87-1.34-1.62-3.07-3.12-4.66-4.45-3.07-2.56-6.1-4.82-9.53-6.88-3-1.8-6.23-3.49-9.53-4.76-3.19-1.24-6.55-1.98-9.74-3.18h-2.54v-.42h-2.96v-.42h-9.32v.42h-2.54v.42h-1.69c-2.56,1.28-5.07,2.07-7.41,3.71-2.53,1.77-4.63,3.73-6.14,6.25-1.46,2.44-2.5,4.54-3.39,7.2-.69,2.07-1.27,4.69-1.27,6.99v1.27c0,2.55,.48,4.96,.85,7.41,.39,2.61,1.39,5.3,2.54,7.62Zm23.29-16.3h.42c.14,.28,.28,.56,.42,.85h-.42l-.42-.85Z"/><path class="b" d="M483.27,135.8h-.42c-1.04,1.86-3.08,3.2-4.23,4.87-1.01,1.46-1.81,3.08-2.54,4.66-1.39,3.01-2.48,5.92-2.96,9.32-1.02,7.21,1.55,13.22,4.66,18.85h.42c-.07-1.4,1.63-3.91,2.33-5.08,.92-1.53,1.59-3.26,2.33-4.87,.42-.9,1.15-1.7,1.69-2.54,.5-.77,.84-1.76,1.27-2.54,1.01-1.84,2.44-3.43,3.81-5.08,1.28-1.54,2.49-3.45,3.81-5.08,1.48-1.83,3.42-3.42,5.08-5.08,1.55-1.55,3.36-2.9,5.08-4.23,1.57-1.22,3.54-1.87,5.08-3.18h.42c-.95,1.69-3.26,3.05-4.66,4.45-1.53,1.53-2.86,2.98-4.23,4.66-2.43,2.97-4.63,6.3-6.56,9.53-1.85,3.09-3.79,6.27-5.29,9.53-.73,1.59-1.45,3.25-2.12,4.87-.49,1.19-1.97,3.27-1.69,4.66h-.42v.85h3.39v-.42h2.54v-.42h2.12c4.01-2.01,8.35-3.23,12.28-5.51,4.23-2.44,8.23-5.39,11.86-8.68,2.01-1.83,3.76-3.41,5.51-5.51,1.48-1.79,2.41-3.93,3.39-5.93,.97-1.98,2.01-3.89,2.33-6.14,.29-2,.64-3.73,.64-5.93,.18-.82-.32-1.21-.42-1.91-.12-.82-.18-1.17-.42-1.91-.42-1.26-.86-2.52-1.69-3.6-2.01-2.6-4.82-3.47-7.62-4.87h-1.69v-.42h-2.96v-.42h-3.81v.42h-3.39v.42h-2.12c-3.6,1.35-7.23,2.52-10.59,4.45-1.76,1.01-3.71,2.02-5.29,3.28-1.62,1.29-3.82,2.69-4.87,4.55Z"/><path class="b" d="M335.05,124.15c0,.76,.33,1.14,.42,1.69,.2,1.24,.23,2.18,.42,3.39,.16,1.02,.93,2.37,1.27,3.39,.72,2.16,1.96,4.32,2.96,6.35,.62,1.25,1.76,2.22,2.54,3.39,.69,1.03,1.23,1.9,2.12,2.96,1.84,2.22,3.56,4.84,5.93,6.78,4.08,3.34,8.1,5.95,13.13,7.83h2.96c0-1.95-.58-3.81-.85-5.72-.15-1.03-.26-1.87-.42-2.96-.08-.52-.25-1.16-.42-1.69-.02-.06-.44-1.38-.42-1.27-.66-4.07-1.27-8.05-2.54-11.86-.16-.49-.29-1.02-.42-1.48v-.64c.1-.38-.04-.66-.42-.85-.2-1.22-.49-1.88-.85-2.96-.33-1-.52-1.98-.85-2.96-.3-.91-.45-2.1-.85-2.96-1.79-3.96-3.34-7.75-5.51-11.65h.42c.57,1.04,1.51,1.84,2.12,2.75,.67,1.01,1.49,2.02,2.12,2.96,1.3,1.95,2.85,3.83,3.81,5.93,1.74,3.79,3.93,7.63,5.08,11.65,2.12,7.43,4.23,14.99,4.23,23.29h.85c1.13-2.06,2.81-3.67,3.81-5.72,.97-1.99,2.05-3.91,2.96-5.93,.4-.87,.54-2.05,.85-2.96,.3-.91,.71-2.02,.85-2.96,.28-1.92,.61-3.81,.85-5.72,.23-1.84,0-3.87,0-5.72,0-1.97-.26-4.16-.85-5.93-.33-.98-.53-2.01-.85-2.96-.33-1-.52-1.98-.85-2.96-.68-2.05-1.87-3.75-2.96-5.72-.93-2.04-2.43-3.49-3.81-5.29-1.36-1.78-3.01-3.5-4.87-4.98-3.39-2.69-6.71-4.29-10.8-5.82h-2.96v-.42h-2.12v.42h-3.39c-3.6,1.8-6.98,3.23-9.11,6.78-1.01,1.68-1.72,3.04-2.33,4.87-.45,1.35-1.24,2.98-1.27,4.45,0,2.29-.42,4.19-.42,6.56,0,1.33,.25,2.2,.42,3.39,.06,.39,0,.88,0,1.27Z"/><path class="b" d="M631.07,129.87c0,1.84-.07,3.8,.21,5.51,.14,.82,.08,1.84,.21,2.75,.13,.95,.42,1.52,.42,2.54s.19,1.81,.42,2.75c.23,.95,.26,1.71,.42,2.75,.05,.31,.32,1.06,.42,1.48,.1,.4,.28,.85,.42,1.27,.27,.82,.57,1.72,.85,2.54,.6,1.81,1.32,3.56,2.12,5.29,.93,2.03,3.07,3.25,4.23,5.29h.85c1.13-1.85,1.88-4.16,2.54-6.14,.66-1.99,1.46-3.96,2.12-5.93,2.34-7.01,4.31-14.13,5.51-21.6,.13-.78,.72-1.96,.85-2.75,.15-.97,.3-1.91,.42-2.75,.14-.9,.08-1.94,.21-2.75,.13-.78,.21-1.64,.21-2.54,0-1.87,.42-3.34,.42-5.29v-5.29h.42c0,1.16,.08,2.15,.42,3.18,.35,1.05,.27,2.02,.42,3.18,.08,.59,.37,.96,.42,1.69,.04,.49,0,.99,0,1.48,0,1.25,.32,2.01,.42,3.18,.15,1.73,.25,4,0,5.72-.14,.98-.42,1.81-.42,2.96,0,.96-.08,1.92-.21,2.75-.59,3.78-1.35,7.48-1.91,11.22-.28,1.88-1.03,3.85-1.48,5.72-.47,1.93-1.28,3.85-1.91,5.72s-1.2,3.82-1.91,5.72c-.36,.97-.64,2.02-1.06,2.96-.35,.8-1.05,1.52-.85,2.54h.42c2.42-1.64,4.52-3.45,6.78-5.29,2.3-1.89,4.13-4.13,6.14-6.14,1.73-1.73,2.71-3.86,4.02-5.72,1.34-1.9,2.44-3.86,3.39-5.93,1.72-3.74,2.81-7.59,3.81-11.65,.92-3.75,1.27-7.74,1.27-11.86,0-2.09-.42-3.64-.42-5.72s-.85-3.72-.85-5.72c-.48-.48-.66-1.98-.85-2.54-.29-.86-.57-1.7-.85-2.54-.58-1.74-1.38-3.51-2.33-5.08-2.19-3.65-5.34-6.05-9.53-7.62h-6.35c-3.85,1.93-7.69,3.85-9.95,7.62-1.11,1.86-2.56,3.4-3.6,5.29-.84,1.53-1.33,3.21-2.12,4.87,.02,.96-.76,2.07-1.06,2.96-.35,1.06-.71,2.12-1.06,3.18-.63,1.9-.97,3.92-1.27,5.93-.26,1.77-.85,3.61-.85,5.51v5.29Z"/><path class="b" d="M371.89,85.19c0,1.5,.39,3.29,.85,4.66,1.11,3.33,1.83,6.77,3.81,9.74,1.07,1.61,2.1,3.26,3.39,4.87,1.04,1.3,3.51,2.32,4.23,3.81h.85c-.18-.75,.21-1.68,.42-2.33,.27-.81,.57-1.72,.85-2.54,.51-1.53,.58-3.01,.85-4.66,.04-.26,.34-.7,.42-1.06,.08-.38,.16-.97,.21-1.27,.03-.2,.12-.79,.21-1.06,.02-.06,.44-1.39,.42-1.27,.26-1.64,.18-3.02,.42-4.66,.13-.89,.42-1.49,.42-2.54,0-.68-.1-1.45,0-2.12,.05-.32,.36-.8,.42-1.27,.06-.39,0-.88,0-1.27v-6.99c0-1.7-.42-2.92-.42-4.66h.42c-.36,1.46,1.09,3.28,1.27,4.66,.22,1.63,.65,3.1,.85,4.66,.39,3.05,.42,6.08,.42,9.32,0,1.78-.2,3.28-.42,4.87-.23,1.65-.16,3.01-.42,4.66-.09,.58-.75,1.54-.85,2.12-.15,.92-.14,1.68-.42,2.54-.23,.7-.61,1.4-.85,2.12-.2,.61-.31,1.79-.85,2.33h.85c3.43-2.31,6.99-4.91,9.32-8.26,1.19-1.72,2.54-3.24,3.39-5.08,.69-1.5,1.17-3.09,1.69-4.66,.51-1.54,1.08-3.22,1.27-4.87,.18-1.57,0-3.28,0-4.87,0-1.77-.09-3.28-.42-4.87-.18-.85-.16-1.53-.42-2.33-.23-.7-.27-1.72-.85-2.33,.06-.85-.52-1.24-.85-1.91-.3-.6-.27-1.3-.64-1.91-.78-1.3-1.59-2.58-2.54-3.81-2.09-2.71-4.87-4.02-7.83-5.51h-6.35c-3.02,1.51-5.53,2.89-7.62,5.51-.95,1.19-1.9,2.67-2.54,4.02-.57,1.2-.96,2.4-1.69,3.6-.49,3.21-1.69,6.03-1.69,9.53,0,.82-.11,1.73,0,2.54,.14,.97,.42,1.49,.42,2.54Z"/><path class="b" d="M495.13,73.33c.15,1.04-.16,2.14,0,3.18,.14,.95,.54,2.25,.85,3.18,.38,1.13,.47,2.26,.85,3.39,1.36,4.07,3.7,7.72,5.93,11.43,1.19,1.99,2.73,4,4.45,5.72s3.23,3.85,5.29,5.51c3.67,2.93,7.17,5.49,11.43,7.62,3.71,1.86,7.78,2.83,11.43,4.66h1.69v.42h1.69v.42h2.12v.42h2.54v.42h2.96v.42h5.08v.42h11.01v-.42h5.51v-.42h3.39v-.42h2.96v-.42h2.54v-.42h2.54v-.42h2.12c.93-.46,1.19-.38,1.06-1.27-.05-.35-.86-1.15-1.06-1.48-.62-1.04-1.39-2.51-2.12-3.39-1.8-2.17-3.31-4.58-5.29-6.56-3.65-3.65-7.06-8.1-11.22-11.43-3.89-3.11-7.58-6.36-11.65-9.21-3.86-2.7-7.89-5.07-11.86-7.62-1.85-1.19-3.81-2.15-5.72-3.28-1.93-1.15-4.2-2.13-5.93-3.6h.42c2.13,1.8,5.68,2.82,8.26,3.92,2.8,1.19,5.52,2.55,8.26,3.92,5.63,2.81,10.91,6.29,16.09,9.74,5.03,3.35,10.09,7.12,14.4,11.43,4.61,4.61,9.78,9.19,13.13,14.4,1.61,2.51,3.53,4.71,5.08,7.2,1.49,2.38,2.74,4.88,4.23,7.2,1.44,2.23,2.71,4.79,3.81,7.2,.29,.62,.63,1.47,.85,2.12,.22,.65,.57,1.08,.85,1.69,.23,.51,.17,1.18,.42,1.69,.35,.71,.6,1.13,.85,1.91,.78,2.42,1.83,4.72,2.54,7.2,.34,1.19,.87,2.41,1.27,3.6,.39,1.18,.51,2.42,.85,3.6,1.33,4.66,2.05,9.45,2.75,14.4,.67,4.7,.64,9.61,.64,14.61,0,1.37-.27,2.4-.42,3.6-.08,.61,0,1.3,0,1.91,0,.77-.33,1.12-.42,1.69-.21,1.29-.16,2.43-.42,3.6-.26,1.16-.42,2.12-.42,3.39h-.42c0-2.74,.42-4.98,.42-7.62v-3.81c0-1.46-.32-2.47-.42-3.81-.21-2.75-.03-5.2-.42-7.83-.17-1.18-.67-2.64-.85-3.81-.15-1.03-.07-2.79-.85-3.6,.16-.75-.23-1.48-.42-2.12-.22-.72-.38-1.42-.64-2.12-.57-1.54-1.18-2.96-1.91-4.45-1.42-2.91-2.81-5.9-5.08-8.47-2.53-2.87-5.06-5.28-8.26-7.52-2.62-1.83-5.69-3.01-8.68-4.13h-2.54v-.42h-3.81v.42h-2.54c-6.47,2.43-11.2,7.24-13.98,12.92-.6,1.24-1.05,2.71-1.48,4.02-.24,.71-.41,1.4-.64,2.12-.18,.57-.76,1.34-.85,1.91-.43,2.72-1.27,4.91-1.27,7.83h-.42c0,2.36-.42,4.32-.42,6.56,0,2.38,.42,4.23,.42,6.56,0,2,.54,3.97,.85,5.93,.31,2,1.11,4.02,1.69,5.93,.62,2.04,1.28,3.98,2.12,5.93,.85,1.98,1.64,4.07,2.75,5.93,2.37,3.94,4.72,7.78,7.41,11.65,1.39,2,3.13,4.08,4.66,5.93,1.64,1.98,4.22,3.47,5.51,5.72h.85c.72-1.27,2.05-2.22,2.75-3.39,.67-1.11,1.38-2.03,1.91-3.18,1.03-2.23,2.17-4.14,2.75-6.56,.91-3.77,1.91-7.72,1.91-11.86s-.13-7.97-.42-11.86c-.15-1.91-.58-3.8-.85-5.72-.27-1.93-.66-4.09-1.27-5.93-.65-1.94-1.05-3.99-1.69-5.93-.33-1-.52-1.98-.85-2.96-.27-.82-.87-1.86-.85-2.75h.42c-.08,1.14,1.18,2.85,1.69,3.81,.67,1.26,1.18,2.49,1.69,3.81,.5,1.3,1.27,2.48,1.69,3.81,.4,1.26,.85,2.54,1.27,3.81,.86,2.6,1.66,5.03,2.12,7.83,.08,.5,.55,1.34,.64,1.91,.09,.54,.12,1.28,.21,1.91,.1,.68,.32,1.14,.42,1.91,.09,.67-.11,1.14,.42,1.69,0,2.75,.42,5.03,.42,7.83s-.06,5.06-.42,7.62c-.37,2.61-.86,5.29-1.48,7.83-.31,1.29-.63,2.74-1.06,4.02-.37,1.11-1.3,2.36-1.27,3.6h-.42c.05,1.91-1.8,4.76-2.75,6.35-1.27,2.11-2.52,4.09-4.02,6.14-5.79,7.91-13.81,15.05-21.17,22.02-3.46,3.28-7.39,6.3-11.22,9.11-1.91,1.4-3.82,2.82-5.72,4.23-1.37,1.03-4.36,2.26-5.08,3.81h-.85v.42h-.42c-2.11,1.77-4.68,3.07-6.99,4.55-2.38,1.53-4.64,3.15-6.99,4.76h-.85v.42h-.42v.42h-.85v.42h-.42v.42h-.85v.42h-.42c-.54,.36-3.22,1.84-3.39,2.33-.44,1.25,1.23,2.44,1.69,3.39,1.09,2.2,2.25,4.29,3.39,6.56h.42c.51-1.08,2.44-1.69,3.39-2.33,1.08-.72,2.21-1.32,3.39-1.91,2.31-1.16,4.6-2.29,6.99-3.25,4.65-1.87,9.5-3.04,14.19-4.8h2.12v-.42h2.12v-.42h2.54v-.42h3.39v-.42h5.08v-.42h9.74v.42h6.35v.42h3.81v.42h2.96v.42h2.54v.42h2.12v.42h2.12c5.96,2.24,12.37,3.74,17.36,7.83,5.15,4.22,7.52,9.28,8.47,15.25,.06,.36,.35,.77,.42,1.27,.04,.26,0,.59,0,.85,0,.72,.34,1.18,.42,1.69,.19,1.2,0,2.59,0,3.81,0,1.47,.42,2.35,.42,3.81v3.81c0,1.47,.42,2.35,.42,3.81,0,.82,.32,1.23,.42,1.91,.1,.62-.1,1.29,0,1.91,.03,.21,.33,1,.42,1.27,.08,.23-.04,.62,0,.85,.01,.09,.38,.72,.42,.85,.08,.25-.04,.59,0,.85,.08,.48,.55,1.36,.64,1.91,.1,.65,.44,1.32,.64,1.91,.86,2.57,1.69,5.08,2.54,7.62,.82,2.45,3.08,4.82,3.39,7.41h.42c-.09,1.26,1.48,3.01,2.12,4.02,.84,1.33,1.79,2.8,2.75,4.02,2.14,2.74,4.78,5.35,7.41,7.83,4.6,4.34,10.21,6.48,16.09,8.68h2.12v.42h3.81v.42h3.39v-.42h3.39v-.42h1.69c5.34-2.67,10.31-5.54,13.34-10.59,1.38-2.3,2.78-4.66,3.6-7.2,.36-1.11,.48-2.28,.85-3.39,.3-.89,.9-2.43,.85-3.39,0-1.47,.29-2.7,.42-4.23,.13-1.5,.42-2.79,.42-4.45v-4.23c0-1.55-.22-2.89-.42-4.23-.2-1.34-.25-2.59-.42-3.81-.19-1.37-.43-2.55-.85-3.81-.39-1.18-.3-2.7-.85-3.81-.62-1.26-1.25-2.48-1.69-3.81-.92-2.76-2.66-5.13-4.23-7.62-.87-1.37-1.9-2.5-2.96-3.81-1.05-1.29-2-2.67-3.39-3.81-4.84-3.97-9.58-7.97-15.25-10.8-4.93-2.46-10.13-3.59-15.25-5.51h-2.54v-.42h-2.12v.42h.42c1.48,2.6,4.66,4.87,6.78,6.99,1.17,1.17,2.26,2.43,3.18,3.6,.98,1.25,2.42,2.13,3.39,3.39,3.15,4.07,6.61,7.98,8.68,12.49,.99,2.16,2.21,4.09,2.96,6.35,.69,2.06,1,4.27,1.69,6.35,.64,1.91,.85,3.97,.85,6.14,0,1.25,.42,1.97,.42,3.18s-.27,2.17-.42,3.18c-.31,2,.3,4.14,0,6.14-.29,1.96-.85,4.05-.85,6.14h-.85c0-5.71-1.92-10.96-3.39-16.09-.71-2.48-1.44-4.81-2.33-7.2-.86-2.33-1.97-4.64-2.75-6.99-1.72-5.15-4.71-9.74-7.62-14.4-3.15-5.03-7.82-10.03-12.7-13.98-2.35-1.9-4.78-3.69-7.2-5.51-2.23-1.67-5.07-2.61-7.2-4.45h-.42v-.42h-.85v-.42h-.85v-.42h-.85v-.42h-.85v-.42h-.85v-.42h-.85c-1.69-1.47-4.3-2.33-6.35-3.18-1.95-.81-3.94-1.54-5.93-2.26-4.03-1.45-8.27-2.38-12.28-3.88h-2.12v-.42h-2.12v-.42h-2.54v-.42h-2.96v-.42h-3.81v-.42h-7.2v-.42h-3.81v.42h-6.78v.42h-3.39v.42h-2.54v.42h-1.69v.42h-1.27c5.76-3.81,11.65-7.38,17.36-11.22,5.09-3.43,10.29-6.73,15.46-10.06,5.11-3.29,10.22-6.8,15.46-9.85,5.3-3.08,10.42-6.5,15.46-9.95,2.52-1.73,5.1-3.35,7.62-5.08,1.34-.92,2.67-1.85,4.02-2.75,1.12-.75,2.7-1.54,3.39-2.75h.85c.61-1.21,2.72-2.33,3.81-3.18,1.33-1.03,2.84-2.03,4.23-2.96,2.84-1.9,5.4-4.18,8.05-6.35,4.92-4.04,10.28-7.74,14.82-12.28,4.76-4.76,9.8-9.38,14.61-14.19,4.67-4.67,8.82-9.61,12.92-14.61,1.87-2.28,3.48-5.09,5.29-7.41,1.84-2.35,3.44-4.61,4.87-7.2h.42c-1.07,2.19-2.22,4.32-2.96,6.56-.77,2.3-2.38,4.15-3.39,6.35-1.88,4.09-4.64,7.74-6.99,11.65-2.48,4.13-5.62,7.77-8.68,11.65-3.08,3.91-6.3,7.99-9.95,11.65-1.91,1.91-3.81,3.81-5.72,5.72-1.71,1.71-4.31,3.18-5.51,5.29h-.42v.42h-.42v.42h-.85v.85h4.23v-.42h4.23v-.42h2.54v-.42h2.12v-.42h2.12c5.53-2.07,10.99-3.59,16.3-6.25,5.07-2.53,10.19-5.63,14.19-9.63,4.61-4.61,8.95-9.1,11.86-14.4,2.51-4.57,3.86-9.47,5.51-14.4,1.44-4.31,1.27-9.3,1.27-14.19s-1.89-9.83-4.66-13.76c-3.4-4.83-8.06-7.04-13.55-9.11h-2.54v-.42h-7.2v.42h-2.96c-2.7,1.01-5.47,1.67-8.05,2.96-2.78,1.39-5.22,2.97-7.62,4.87-5.39,4.26-9.54,9.5-12.7,15.03-1.29,2.9-3.25,5.31-4.23,8.26-.97,2.91-2.84,5.55-3.81,8.47-1.69,5.06-4.13,9.98-6.35,14.82-2.33,5.07-5.21,10.38-8.89,14.82-4.06,4.9-9.13,8.87-14.4,12.49-2.33,1.6-4.77,3-7.2,4.45-1.37,.82-2.66,1.83-4.02,2.65-1.03,.62-2.62,1.08-3.18,2.22h-.42c.39-.4,.69-1.43,.85-1.91,.2-.61,.34-1.33,.64-1.91,.65-1.26,1.04-2.69,1.48-4.02,.86-2.57,1.69-5.07,2.54-7.62,.84-2.52,1.89-5.19,2.33-7.83,.42-2.54,1.48-4.96,1.48-7.62,0-.7,.32-1.18,.42-1.91,.08-.55-.08-1.14,0-1.69,.09-.63,.33-1.01,.42-1.69,.09-.62-.09-1.28,0-1.91,.31-2.19,.42-4.56,.42-6.99s.82-4.68,.42-7.2c-.08-.53-.42-.99-.42-1.69v-5.51c0-1.2-.42-1.94-.42-3.18s-.27-2.14-.42-3.18c-.08-.55,.08-1.14,0-1.69-.08-.59-.35-.99-.42-1.48-.07-.48,.07-1,0-1.48-.1-.7-.33-1.06-.42-1.69-.17-1.17-.15-2.08-.42-3.18-.14-.56-.34-.93-.42-1.48-.04-.28,.04-.57,0-.85-.05-.35-.39-.62-.42-.85-.35-2.22-.58-4.29-1.27-6.35s-1-4.28-1.69-6.35c-.71-2.12-1.42-4.26-2.12-6.35-.72-2.15-1.41-4.23-2.12-6.35-.72-2.16-1.82-4.19-2.54-6.35-.73-2.18-2-4.26-2.96-6.35-.97-2.11-1.94-4.27-2.96-6.35-.32-.65-.97-1.05-1.27-1.69-.22-.48-.35-1.01-.64-1.48-.64-1.06-1.27-2.12-1.91-3.18-1.25-2.07-2.49-4.31-3.81-6.35-2.83-4.37-6.1-8.5-9.32-12.7-1.65-2.15-3.59-4.43-5.51-6.35-1.86-1.86-4.64-3.84-5.93-6.14h-.42c-.35-.8-1.7-1.48-2.33-2.12-.83-.83-1.66-1.4-2.54-2.12-1.7-1.4-3.37-2.77-5.08-4.13-3.06-2.43-6.71-4.47-10.16-6.35-3.31-1.8-6.82-3.37-10.38-4.55-3.35-1.12-6.85-1.93-10.16-3.18h-2.12v-.42h-2.96v-.42h-5.93v-.42h-3.81v.42h-5.08v.42h-2.12v.42h-1.69c-5.34,2-10.04,4.29-13.55,8.68-3.15,3.93-5.08,8.51-5.08,13.76,.17,.77-.42,1.11-.42,1.69,0,.37,.35,.98,.42,1.48Z"/><path class="b" d="M597.19,79.69c.11,.68,.74,1.86,.85,2.54,.14,.86,.06,1.8,.42,2.54,.81,1.64,1.55,3.34,2.54,4.87,1.05,1.61,1.73,3.54,2.96,5.08,1.24,1.55,2.53,3.33,3.81,4.87,2.68,3.22,6.32,5.12,10.16,6.56h.85c0-6.24,.07-12.41-.85-18.21-.24-1.54-.84-3.13-1.06-4.66-.2-1.41-.6-3.08-1.06-4.45-.52-1.55-1.17-3.09-1.69-4.66-.48-1.44-1.21-3.13-2.12-4.45h.42c1.44,3.24,3.98,5.81,5.08,9.11,1.01,3.03,2.65,5.98,3.39,9.11,1.37,5.8,2.12,11.88,2.12,18.21h.42c.74-1.67,2.23-2.84,2.96-4.45,.39-.85,.86-1.69,1.27-2.54,.33-.7,.51-1.44,.85-2.12,.77-1.58,1.14-2.99,1.69-4.66,.5-1.49,.59-2.8,.85-4.45,.12-.79,.42-1.36,.42-2.33v-2.33c0-1.62-.22-3.05-.42-4.45-.26-1.75-.32-3.08-.85-4.66-.49-1.46-.77-3.1-1.69-4.45v-.42h-.42v-.42c-1.71-3-3.33-5.66-5.93-8.26-2.53-2.53-5.33-3.72-8.47-5.29h-2.54v-.42h-2.12v.42h-2.54c-1.19,1.08-2.79,1.44-4.02,2.54-1.26,1.12-1.99,2.32-2.75,3.6-.71,1.19-1.26,2.52-1.69,3.81-.31,.93-.09,2.82-.85,3.6v.85c0,.81,.11,1.74,0,2.54-.11,.79-.57,1.31-.42,2.33,.22,1.57,.15,3.38,.42,5.08Zm14.4-10.8h.42v.42h-.42v-.42Z"/></svg>