<?xml version="1.0" encoding="UTF-8"?><svg xmlns="http://www.w3.org/2000/svg" viewBox="0 0 618.64 35.33"><defs><style>.d{fill:#83603f;}</style></defs><g id="a"/><g id="b"><g id="c"><g><g><g><g><path class="d" d="M349.8,22.43c-4.3,3.26-9.49,.3-12.53-2.1-3.18-2.5-6.94-4.01-10.83-4.14-13.94-.48-15.56,15.25-15.56,15.25,0,0,8.92-14.89,19.46-9.72,0,0,7.35,3.18,8.64,12.72,0,0,2.32-4.51-.54-8.81,2.68,1.26,7.09,2.45,11.36-3.2Z"/><path class="d" d="M265.94,22.43c4.3,3.26,9.49,.3,12.53-2.1,3.18-2.5,6.94-4.01,10.83-4.14,13.94-.48,15.56,15.25,15.56,15.25,0,0-8.92-14.89-19.46-9.72,0,0-7.35,3.18-8.64,12.72,0,0-2.32-4.51,.54-8.81-2.68,1.26-7.09,2.45-11.36-3.2Z"/></g><path class="d" d="M320.94,12.83c-4.93-.95-9.42,5.13-12.17,10.02-.33,.59-.63,1.16-.91,1.7-.26-.53-.57-1.11-.9-1.68-2.75-4.89-7.24-10.99-12.17-10.04,3.85-5.96,9.83-2.86,13.07,6.85,3.25-9.71,9.23-12.81,13.08-6.85Z"/><path class="d" d="M305.96,6.97c-.56-2.97,1.91-6.97,1.91-6.97,0,0,2.48,4,1.91,6.97-.42,2.21-3.4,2.21-3.82,0Z"/></g><g><path class="d" d="M349.91,31.81c28.11,3.97,57.21,4.37,85.46,2.24,11.46-.86,22.9-2.26,34.2-4.4,12.04-2.28,23.55-5.82,35.19-9.56,19.84-6.37,40.91-11.07,61.87-10.16,7.16,.31,15.78,.91,22.29,4.34,1.05,.55,1.98-1.04,.93-1.59-5.04-2.65-11.32-3.5-16.87-4.11-17.99-1.98-36.44,.96-53.84,5.43-12.46,3.2-24.45,7.91-36.93,11.01-11.7,2.91-23.62,4.86-35.6,6.16-20.96,2.27-42.12,2.61-63.17,1.63-10.95-.51-22.35-1.27-33.04-2.78-1.16-.16-1.66,1.61-.49,1.77h0Z"/><path class="d" d="M268.25,30.1c-28.61,4.04-58.85,4.36-87.76,1.96-11.96-1-23.88-2.59-35.63-5.05-12.29-2.57-23.96-6.74-35.97-10.32-18.81-5.61-38.77-9.61-58.5-8.44-7.02,.42-15.23,1.16-21.6,4.51-1.05,.55-.12,2.14,.93,1.59,5.19-2.73,11.89-3.51,17.61-4.03,19.08-1.74,38.51,1.79,56.82,6.91,12.23,3.42,24.06,7.93,36.46,10.73,11.28,2.55,22.75,4.27,34.25,5.42,20.73,2.07,41.64,2.29,62.44,1.23,10.49-.53,21.03-1.27,31.43-2.74,1.17-.17,.67-1.94-.49-1.77h0Z"/></g></g><g><g><path class="d" d="M12.91,2.12c-.95,4.9,5.16,9.36,10.08,12.1,.6,.33,1.17,.63,1.71,.9-.54,.26-1.11,.56-1.69,.89-4.92,2.74-11.05,7.2-10.1,12.1-5.99-3.82-2.88-9.77,6.89-12.99C10.03,11.89,6.91,5.94,12.91,2.12Z"/><path class="d" d="M7.01,17.01c-2.98,.56-7.01-1.9-7.01-1.9,0,0,4.03-2.46,7.01-1.9,2.22,.42,2.22,3.38,0,3.8Z"/></g><g><path class="d" d="M605.74,2.12c.95,4.9-5.16,9.36-10.08,12.1-.6,.33-1.17,.63-1.71,.9,.54,.26,1.11,.56,1.69,.89,4.92,2.74,11.05,7.2,10.1,12.1,5.99-3.82,2.88-9.77-6.89-12.99,9.76-3.23,12.88-9.18,6.89-13Z"/><path class="d" d="M611.63,17.01c2.98,.56,7.01-1.9,7.01-1.9,0,0-4.03-2.46-7.01-1.9-2.22,.42-2.22,3.38,0,3.8Z"/></g></g></g></g></g></svg>